<svg width="33" height="33" viewBox="0 0 33 33" fill="none" xmlns="http://www.w3.org/2000/svg">
<path d="M10.1537 5.84319C10.7884 4.6697 11.736 3.69508 12.891 3.02752C14.0461 2.35995 15.3636 2.02556 16.6972 2.06146C18.0308 2.09735 19.3284 2.50213 20.4459 3.23087C21.5634 3.9596 22.4571 4.98378 23.0278 6.18972C21.5255 6.22382 20.0657 6.69471 18.8266 7.54488C17.5875 8.39504 16.6229 9.58768 16.0504 10.9771C15.5228 10.0975 14.8905 9.28503 14.1673 8.55764C13.0052 7.41676 11.6452 6.49695 10.1537 5.84319ZM30.921 14.4382C31.0385 12.6779 30.5511 10.9301 29.5394 9.48475C28.5277 8.03935 27.0526 6.98304 25.3584 6.49086C24.8025 4.72958 23.7341 3.17409 22.2896 2.02321C20.8452 0.872339 19.0904 0.178371 17.2496 0.0300126C15.4087 -0.118346 13.5655 0.285645 11.9554 1.19035C10.3453 2.09505 9.04157 3.45936 8.21081 5.10889C7.3903 4.85383 6.55476 4.64992 5.709 4.49835C4.27843 4.24087 2.82715 4.1159 1.37362 4.12501C1.24707 4.12731 1.12056 4.13144 0.994125 4.13738H0.985875C0.733739 4.15256 0.495894 4.25957 0.317284 4.43819C0.138675 4.61681 0.0316731 4.85467 0.0164998 5.10683V5.10889C-0.000564286 5.57144 -0.00125207 6.03445 0.0144374 6.49705C0.0412499 7.34067 0.129937 8.51226 0.369187 9.83648C0.622875 11.2432 1.05188 12.8562 1.782 14.4362H1.03125C0.757746 14.4362 0.495443 14.5448 0.302046 14.7382C0.108649 14.9317 0 15.194 0 15.4675V16.4988C0 20.8752 1.73839 25.0723 4.83274 28.1669C7.92709 31.2615 12.1239 33 16.5 33C20.8761 33 25.0729 31.2615 28.1673 28.1669C31.2616 25.0723 33 20.8752 33 16.4988V15.4675C33 15.194 32.8914 14.9317 32.698 14.7382C32.5046 14.5448 32.2423 14.4362 31.9688 14.4362H30.921V14.4382ZM4.092 14.4382C3.19688 12.8253 2.68538 11.0576 2.40075 9.47139C2.20596 8.3883 2.09426 7.2919 2.06663 6.19178L2.30175 6.20003C3.069 6.22684 4.13737 6.30935 5.34188 6.52799C7.77563 6.96733 10.6342 7.9409 12.7091 10.0159C13.9796 11.2865 14.8397 12.8541 15.4172 14.4382H11.7728L7.94888 10.6141C7.85299 10.5183 7.73919 10.4424 7.61397 10.3906C7.48875 10.3389 7.35455 10.3123 7.21905 10.3124C7.08355 10.3125 6.9494 10.3393 6.82425 10.3912C6.6991 10.4431 6.5854 10.5192 6.48966 10.6151C6.39391 10.711 6.31799 10.8248 6.26622 10.9501C6.21446 11.0753 6.18786 11.2095 6.18796 11.345C6.18805 11.4805 6.21484 11.6147 6.26678 11.7398C6.31872 11.865 6.39481 11.9787 6.49069 12.0744L8.85638 14.4382H4.092ZM17.5972 14.4382C17.579 14.3824 17.5605 14.3267 17.5416 14.2712C17.4967 13.493 17.6126 12.7139 17.8822 11.9826C18.1518 11.2512 18.5692 10.5833 19.1084 10.0205C19.6476 9.45763 20.297 9.01196 21.0161 8.71128C21.7351 8.4106 22.5085 8.26136 23.2878 8.27287C24.0671 8.28438 24.8357 8.45639 25.5456 8.77818C26.2554 9.09996 26.8914 9.56461 27.4137 10.1431C27.9361 10.7216 28.3336 11.4016 28.5814 12.1406C28.8293 12.8796 28.9222 13.6617 28.8544 14.4382H17.5993H17.5972ZM2.0625 16.5009H30.9375C30.9375 17.9344 30.7292 19.3185 30.3394 20.6262H2.66062C2.2628 19.2872 2.06133 17.8977 2.0625 16.5009ZM16.5 30.9394C13.7674 30.94 11.0907 30.165 8.78111 28.7045C6.47149 27.244 4.62374 25.1579 3.45263 22.6888H29.5474C28.3763 25.1579 26.5285 27.244 24.2189 28.7045C21.9093 30.165 19.2326 30.94 16.5 30.9394Z" fill="black"/>
</svg>
