<svg width="42" height="47" viewBox="0 0 42 47" fill="none" xmlns="http://www.w3.org/2000/svg">
<path d="M37.0572 21.263C35.6766 19.5138 35.2939 17.0986 36.0584 14.9607C36.4601 13.8365 36.6304 12.6448 36.5659 11.4179C36.3505 7.34463 33.489 4.08881 29.9097 3.84526C28.2483 3.73193 26.6587 4.25471 25.3167 5.35767C23.6701 6.71237 21.5853 7.15654 19.7388 6.54598C19.0967 6.3333 18.4286 6.22527 17.7538 6.22527C14.5665 6.22527 11.7491 8.66557 10.9031 12.1591C10.6483 13.2105 9.81294 13.9971 8.82341 14.1167L8.79114 14.121C8.75631 14.1254 8.71554 14.1302 8.67265 14.1384C8.60215 14.1355 8.55161 14.1471 8.51254 14.1553C7.04906 14.1553 5.90707 14.6318 5.11842 15.5717C4.0516 16.8434 3.61501 18.9216 3.74455 22.1113C3.91612 26.3268 6.75602 29.7206 10.3506 30.0051C10.7392 30.036 11.1308 30.0307 11.5142 29.9902C11.7776 29.9617 12.0324 30.0591 12.2299 30.2636C12.4282 30.4691 12.5424 30.7618 12.5428 31.0709C12.5428 35.4982 14.4743 37.6506 18.4469 37.6506L18.5178 37.6501C18.5242 37.6501 18.5306 37.6501 18.5369 37.6501C19.5783 37.6501 20.5597 38.3142 21.1016 39.3877C22.3791 41.9163 24.7191 43.4489 27.2652 43.4489C27.3705 43.4489 27.4762 43.446 27.5815 43.4412C30.8334 43.2792 33.6355 40.5109 34.2445 36.8596C34.2585 36.7767 34.2713 36.6937 34.2823 36.6118C34.4764 35.2151 35.1521 33.9323 36.1853 32.9981C37.8943 31.4534 38.8741 29.1448 38.8741 26.6639C38.8741 24.6659 38.2289 22.7479 37.0572 21.263ZM35.6804 32.2732C34.4874 33.3516 33.706 34.8409 33.4805 36.4666C33.4703 36.5389 33.4593 36.6118 33.4469 36.6856C32.9072 39.9211 30.4257 42.373 27.5463 42.5162C25.1867 42.6363 22.9839 41.258 21.8058 38.9257C21.119 37.5662 19.8683 36.7251 18.5369 36.7251C18.5284 36.7251 18.5199 36.7251 18.5119 36.7251H18.4469C14.9254 36.7251 13.3553 34.9807 13.3553 31.0647C13.3544 30.5004 13.1434 29.9588 12.7764 29.5788C12.4129 29.2031 11.9253 29.0169 11.4387 29.069C11.0989 29.1052 10.7515 29.1095 10.4071 29.0825C7.22361 28.8303 4.70817 25.8147 4.5557 22.0679C4.43721 19.1477 4.80245 17.2862 5.70576 16.2093C6.34407 15.4487 7.26225 15.0788 8.51254 15.0788C8.57285 15.0788 8.61489 15.0721 8.6667 15.0619C8.68709 15.0624 8.70535 15.061 8.72404 15.0581L8.91005 15.0354C10.2279 14.8758 11.3435 13.8182 11.6858 12.4037C12.435 9.30988 14.93 7.14931 17.7534 7.14931C18.3518 7.14931 18.9433 7.2448 19.512 7.43288C21.596 8.12205 23.9441 7.62675 25.7923 6.10663C26.9802 5.13003 28.3851 4.6685 29.8613 4.76688C33.0303 4.98294 35.5644 7.86596 35.7551 11.4734C35.8125 12.5609 35.6613 13.6166 35.3058 14.612C34.4233 17.0812 34.8629 19.8658 36.4529 21.8808C37.4904 23.1954 38.062 24.894 38.062 26.663C38.062 28.8602 37.194 30.905 35.6804 32.2732Z" fill="#1D1D1B"/>
<path d="M18.7829 34.8071H18.6853C18.461 34.808 18.2797 35.0154 18.2805 35.2705C18.2809 35.5257 18.4627 35.7316 18.6865 35.7316C18.6869 35.7316 18.6874 35.7316 18.6878 35.7316L18.7829 35.7311C20.2566 35.7311 21.6436 36.6648 22.4026 38.1675C22.4777 38.3166 22.6145 38.3995 22.7551 38.3995C22.8234 38.3995 22.8931 38.3797 22.9568 38.3378C23.1513 38.2105 23.2184 37.9283 23.1063 37.707C22.2034 35.9182 20.5462 34.8071 18.7829 34.8071Z" fill="#1D1D1B"/>
<path d="M10.9813 27.3979C8.57201 27.207 6.6677 24.9056 6.55133 22.0447C6.54114 21.7896 6.34833 21.5986 6.12707 21.6049C5.90283 21.6165 5.72998 21.833 5.74017 22.0881C5.87523 25.4168 8.10442 28.0963 10.9248 28.32C10.9346 28.321 10.9439 28.3215 10.9532 28.3215C11.1652 28.3215 11.3431 28.1348 11.358 27.8913C11.3737 27.6362 11.2051 27.4158 10.9813 27.3979Z" fill="#1D1D1B"/>
<path d="M34.1371 11.9305C34.1809 12.7566 34.0666 13.5562 33.7982 14.3086C33.7137 14.5449 33.8135 14.8145 34.0216 14.9105C34.0713 14.9341 34.1231 14.9447 34.1741 14.9447C34.3346 14.9447 34.4862 14.8362 34.5508 14.6563C34.8655 13.7752 34.9992 12.8396 34.9478 11.875C34.7818 8.7316 32.4885 6.12203 29.7271 5.93394C29.5046 5.91755 29.3109 6.11287 29.2973 6.36799C29.2842 6.62263 29.4545 6.84158 29.6787 6.85653C32.037 7.01761 33.9953 9.24619 34.1371 11.9305Z" fill="#1D1D1B"/>
<path d="M34.569 30.8197C33.148 32.1039 32.2158 33.8883 31.9444 35.8454C31.9368 35.9009 31.9279 35.9568 31.919 36.0113C31.8782 36.2621 32.0234 36.5037 32.2439 36.55C32.2689 36.5553 32.294 36.5577 32.3186 36.5577C32.5106 36.5577 32.6809 36.4024 32.7174 36.1801C32.7276 36.1179 32.7378 36.0533 32.7467 35.9891C32.9866 34.2621 33.8131 32.6836 35.074 31.5435C35.2498 31.3849 35.2791 31.0941 35.1394 30.8939C35.0001 30.6943 34.7444 30.6615 34.569 30.8197Z" fill="#1D1D1B"/>
<path d="M22.9311 13.7096C18.8681 13.7096 15.5627 17.4718 15.5627 22.0963C15.5627 26.7208 18.8681 30.483 22.9311 30.483C26.9941 30.483 30.2999 26.7208 30.2999 22.0963C30.2999 17.4718 26.9941 13.7096 22.9311 13.7096ZM22.9311 29.5585C19.3157 29.5585 16.3748 26.211 16.3748 22.0963C16.3748 17.9811 19.3157 14.6336 22.9311 14.6336C26.5465 14.6336 29.4875 17.9811 29.4875 22.0963C29.4875 26.211 26.5465 29.5585 22.9311 29.5585Z" fill="#1D1D1B"/>
<path d="M22.9312 27.6545C22.7069 27.6545 22.5251 27.8614 22.5251 28.1165C22.5251 28.3716 22.7069 28.5785 22.9312 28.5785C26.0717 28.5785 28.6267 25.6709 28.6267 22.0963C28.6267 21.8412 28.4449 21.6343 28.2207 21.6343C27.9964 21.6343 27.8147 21.8412 27.8147 22.0963C27.8147 25.1606 25.6237 27.6545 22.9312 27.6545Z" fill="#1D1D1B"/>
</svg>
