<svg width="56" height="56" viewBox="0 0 56 56" fill="none" xmlns="http://www.w3.org/2000/svg">
<circle cx="28" cy="28" r="28" fill="#061428"/>
<path fill-rule="evenodd" clip-rule="evenodd" d="M28 18C28.3315 18 28.6495 18.1317 28.8839 18.3661C29.1183 18.6005 29.25 18.9185 29.25 19.25V26.75H36.75C37.0815 26.75 37.3995 26.8817 37.6339 27.1161C37.8683 27.3505 38 27.6685 38 28C38 28.3315 37.8683 28.6495 37.6339 28.8839C37.3995 29.1183 37.0815 29.25 36.75 29.25H29.25V36.75C29.25 37.0815 29.1183 37.3995 28.8839 37.6339C28.6495 37.8683 28.3315 38 28 38C27.6685 38 27.3505 37.8683 27.1161 37.6339C26.8817 37.3995 26.75 37.0815 26.75 36.75V29.25H19.25C18.9185 29.25 18.6005 29.1183 18.3661 28.8839C18.1317 28.6495 18 28.3315 18 28C18 27.6685 18.1317 27.3505 18.3661 27.1161C18.6005 26.8817 18.9185 26.75 19.25 26.75H26.75V19.25C26.75 18.9185 26.8817 18.6005 27.1161 18.3661C27.3505 18.1317 27.6685 18 28 18Z" fill="white"/>
</svg>
