<svg width="148" height="200" viewBox="0 0 148 200" fill="none" xmlns="http://www.w3.org/2000/svg">
<path d="M147.096 152.048C147.096 152.048 145.732 118.11 136.367 95.0997C128.409 75.532 121.862 71.6154 120.081 70.881L120.117 70.5216L100.628 63.8602L86.0548 54.8341C73.3569 60.8341 60.6746 61.6779 48.0027 57.3133L36.5496 65.6466L23.1381 70.9279C21.6746 71.5008 20.4662 72.4643 19.586 73.6622L19.5496 73.4487C6.28915 91.131 -0.585857 112.777 0.0391435 134.871L0.83081 162.574C0.83081 162.574 11.2319 184.095 20.2579 185.334L17.9246 198.72L41.5391 198.558L41.5339 198.73H82.3256L129.216 199.24L122.466 171.24C141.383 167.303 147.096 152.048 147.096 152.048ZM51.435 51.3237C50.2006 47.907 49.3985 42.2664 49.5704 38.73C49.5704 38.73 57.9506 33.6206 61.685 34.3133C69.8933 35.8289 75.4714 37.756 76.9871 38.0737C78.6433 35.23 82.0235 31.48 84.1641 30.0997C84.4141 29.9383 84.7423 30.0112 84.9037 30.256C85.06 30.506 84.9923 30.8341 84.7423 30.9904C82.9037 32.1831 79.2214 38.1258 77.3308 41.3914C77.7319 42.6831 79.2631 43.5945 78.6121 46.7977C81.1381 43.6727 81.5912 42.657 81.6121 42.6154C81.7162 42.3445 82.0235 42.2091 82.2996 42.3133C82.5704 42.4227 82.7058 42.73 82.6016 43.006C82.5131 43.2248 80.7162 47.7091 76.9923 51.4175C76.1121 53.3029 74.5964 55.105 72.086 56.5164C65.5912 60.1622 54.7319 60.4227 51.435 51.3237Z" fill="#E8E3F4"/>
<g filter="url(#filter0_i_129_575)">
<path d="M135.971 146.475C130.279 140.574 122.456 138.725 119.18 138.194C120.925 136.761 127.998 131.35 134.055 132.542C134.346 132.6 134.623 132.412 134.685 132.126C134.737 131.834 134.55 131.558 134.263 131.501C126.805 130.037 118.425 137.423 118.076 137.735C117.987 137.813 117.93 137.912 117.909 138.016C117.779 138.001 117.695 137.996 117.664 137.99L114.206 137.886C114.263 137.787 114.289 137.678 114.274 137.558C114.253 137.319 111.82 113.334 112.716 105.037C112.748 104.746 112.539 104.48 112.242 104.449C111.956 104.417 111.69 104.631 111.659 104.923C110.753 113.334 113.117 136.678 113.216 137.667C113.227 137.735 113.242 137.798 113.274 137.855L88.409 137.084C88.1069 137.069 87.8725 137.303 87.8621 137.6C87.8517 137.891 88.086 138.136 88.3777 138.147L117.602 139.053C117.706 139.063 128.284 140.037 135.206 147.214C135.31 147.324 135.451 147.376 135.591 147.376C135.721 147.376 135.857 147.329 135.961 147.23C136.169 147.022 136.175 146.688 135.971 146.475ZM97.284 103.11C97.284 102.964 97.1642 102.845 97.0183 102.845H91.9923C91.8465 102.845 91.7267 102.964 91.7267 103.11C91.7267 103.256 91.8465 103.376 91.9923 103.376H97.0183C97.1642 103.376 97.284 103.256 97.284 103.11ZM84.9038 30.256C84.7423 30.0112 84.4454 30.0112 84.1642 30.0998C81.8621 30.8498 78.2058 37.7716 76.5496 40.6154C75.034 40.2977 70.3412 39.3341 62.1277 37.8185C58.3985 37.1258 49.5704 38.73 49.5704 38.73C49.3985 42.2664 50.2006 47.9071 51.435 51.3237C54.7319 60.4227 65.5912 60.1623 72.086 56.5164C74.5965 55.105 76.1121 53.3029 76.9923 51.4175C80.7163 47.7091 82.5131 43.2248 82.6017 43.006C82.7058 42.73 82.5704 42.4227 82.2996 42.3133C82.0235 42.2091 81.7163 42.3446 81.6121 42.6154C81.5913 42.6571 81.3985 43.8446 78.8725 46.9644C79.5235 43.7612 78.5496 42.7039 78.1433 41.4071C80.034 38.1466 82.9038 32.1831 84.7423 30.9904C84.9923 30.8341 85.06 30.506 84.9038 30.256ZM62.7631 117.47C62.6433 117.667 62.3829 117.735 62.185 117.621L61.8465 117.428L57.7058 124.339L60.711 124.787L68.7892 111.699C69.0392 111.292 68.9246 110.761 68.5288 110.49L67.4923 109.803C67.2058 109.615 66.8517 109.615 66.5704 109.772L66.8933 109.99C67.086 110.115 67.1433 110.376 67.0183 110.574M100.602 63.855L87.0288 59.2144L86.2267 63.9331L81.5027 91.6675C80.1173 99.7873 79.5079 108.016 79.6798 116.251L81.3673 198.459H55.6277L57.3569 135.86L50.2267 134.891C49.935 134.85 49.7319 134.584 49.7735 134.292C49.81 134.001 50.0808 133.798 50.3725 133.834L57.3829 134.792L57.5183 130.011L51.4454 128.97C51.1537 128.923 50.961 128.647 51.0079 128.355C51.06 128.069 51.3308 127.876 51.6225 127.923L57.5444 128.938L57.8412 118.199C58.1017 108.819 57.1954 99.4331 55.1537 90.2716L50.8152 70.7925L48.6121 60.9019L42.9246 63.1414C42.4246 63.1987 41.8881 63.3654 41.31 63.6571C41.034 63.7925 40.7683 63.9435 40.4975 64.0946L36.9923 65.4748C35.8985 65.6571 34.7787 65.6414 33.6694 65.4279C30.1954 64.7508 27.0704 62.2352 26.0131 58.8029C24.8881 55.1258 26.1069 50.9539 28.7319 48.2144C30.5079 46.3654 33.9923 45.7664 34.5808 42.98C35.1017 40.5425 32.4558 37.8185 32.0079 35.4435C31.185 31.0894 35.086 29.2873 37.5131 26.506C39.6485 24.0581 39.3152 20.7508 39.6642 17.7352C39.8881 15.7456 40.4037 13.8394 41.2631 12.0269C44.9298 4.27685 53.5548 0.308104 61.6069 2.39664C66.9715 0.000811577 73.034 -0.775229 78.6277 0.88102C83.1173 2.20915 87.2788 4.98519 89.8308 8.95915C91.2892 11.2248 91.8256 13.7144 92.5652 16.2664C93.534 19.6154 95.7423 20.756 97.8621 23.1831C101.086 26.8654 98.6642 30.5477 98.2996 34.7091C97.9142 39.105 103.164 41.9487 102.138 46.4123C101.461 49.3602 96.5235 51.8237 99.9558 54.8914C101.279 56.0685 102.346 56.5373 102.607 58.4956C102.883 60.5998 101.951 62.355 100.602 63.855ZM122.149 170.626C110.055 171.792 98.4506 169.574 96.3777 169.147L94.1121 159.334C94.0444 159.048 93.7579 158.871 93.4767 158.938C93.1902 159.006 93.0079 159.287 93.0756 159.574L95.4142 169.72C95.461 169.917 95.6173 170.074 95.8152 170.115C95.9246 170.141 104.466 172.027 114.904 172.027C117.279 172.027 119.753 171.928 122.248 171.688C122.539 171.657 122.758 171.402 122.727 171.105C122.701 170.813 122.445 170.595 122.149 170.626ZM93.086 104.516C92.9402 104.516 92.8204 104.636 92.8204 104.782C92.8204 104.933 92.9402 105.053 93.086 105.053H95.9194C96.0704 105.053 96.1902 104.933 96.1902 104.782C96.1902 104.636 96.0704 104.516 95.9194 104.516H93.086ZM93.3517 89.8081V92.5841H95.659V89.8081H93.3517ZM20.6902 145.996C20.8412 145.798 20.8308 145.522 20.6694 145.329C16.8204 140.819 7.37249 138.985 6.97145 138.912C6.67979 138.86 6.40374 139.048 6.35166 139.334C6.29437 139.626 6.48708 139.902 6.77354 139.959C6.85687 139.975 13.7058 141.298 17.9506 144.313C15.8621 143.766 12.7996 143.36 10.0079 144.49C7.63291 145.454 5.88291 147.365 4.8152 150.167C4.71104 150.438 4.85166 150.746 5.12249 150.85C5.18499 150.876 5.24749 150.886 5.3152 150.886C5.52874 150.886 5.72666 150.756 5.80999 150.542C6.76833 148.032 8.3152 146.329 10.4037 145.48C14.711 143.73 19.9871 146.131 20.0392 146.157C20.2683 146.261 20.5392 146.194 20.6902 145.996ZM54.6746 149.855L33.3517 157.329C33.0756 157.428 32.9298 157.73 33.0235 158.006C33.1017 158.225 33.3048 158.36 33.5287 158.36C33.586 158.36 33.6433 158.355 33.7058 158.334L55.0235 150.855C55.3048 150.761 55.4506 150.454 55.3517 150.178C55.2527 149.902 54.9506 149.756 54.6746 149.855ZM25.06 165.048C24.7735 164.985 24.4923 165.167 24.4246 165.454L20.3621 183.897C20.3308 183.891 20.2996 183.886 20.2631 183.886C19.8829 183.886 19.5392 183.725 19.2162 183.391C18.6225 182.766 18.185 181.657 17.8673 180.319C17.9662 180.417 18.0704 180.501 18.185 180.563C21.2683 182.256 24.2267 163.824 24.2267 163.824L16.1069 162.975C16.1069 162.975 15.8256 167.365 16.0131 171.782C16.0131 175.063 16.2787 181.865 18.4506 184.126C18.9402 184.636 19.5027 184.912 20.1277 184.949L19.0965 189.636C19.034 189.923 19.211 190.204 19.4975 190.266C19.5392 190.277 19.5756 190.282 19.6173 190.282C19.8569 190.282 20.0808 190.115 20.1329 189.865L25.4662 165.683C25.5287 165.397 25.3465 165.11 25.06 165.048ZM113.185 94.7196C113.201 94.7196 113.216 94.7196 113.227 94.7196C113.503 94.7196 113.737 94.5112 113.758 94.23C114.899 80.131 120.623 71.9539 120.68 71.8758C120.852 71.6362 120.794 71.3029 120.555 71.131C120.315 70.9591 119.987 71.0164 119.815 71.256C119.57 71.5946 113.867 79.7352 112.695 94.1466C112.675 94.4383 112.893 94.6935 113.185 94.7196ZM19.3673 74.9019C19.0912 75.0008 18.9506 75.3081 19.0496 75.5841C19.0912 75.6987 23.3465 87.4227 25.6537 104.141C25.6902 104.407 25.9194 104.6 26.1798 104.6C26.2058 104.6 26.2267 104.6 26.2527 104.595C26.5444 104.558 26.7475 104.287 26.7058 103.996C24.3881 87.1675 20.0912 75.3342 20.0496 75.2196C19.9506 74.9435 19.6433 74.7977 19.3673 74.9019ZM43.1485 158.766L34.7631 162.084C34.4871 162.188 34.3569 162.501 34.461 162.772C34.5444 162.98 34.7475 163.11 34.9558 163.11C35.0235 163.11 35.0912 163.095 35.1537 163.069L43.5392 159.756C43.81 159.647 43.9454 159.339 43.836 159.063C43.7319 158.792 43.4194 158.657 43.1485 158.766ZM28.659 115.886C28.6798 116.027 30.7475 129.813 31.3256 135.61C31.3569 135.902 31.1433 136.162 30.8517 136.194C30.8308 136.194 30.8152 136.194 30.7944 136.194C30.5235 136.194 30.2944 135.99 30.2683 135.714C29.6902 129.944 27.6277 116.183 27.6069 116.042C27.56 115.756 27.7631 115.485 28.0496 115.438C28.3412 115.402 28.6121 115.595 28.659 115.886Z" fill="#15253D"/>
</g>
<path d="M97.2842 103.11C97.2842 102.964 97.1644 102.845 97.0185 102.845H91.9925C91.8467 102.845 91.7269 102.964 91.7269 103.11C91.7269 103.256 91.8467 103.376 91.9925 103.376H97.0185C97.1644 103.376 97.2842 103.256 97.2842 103.11ZM96.1904 104.782C96.1904 104.636 96.0706 104.516 95.9196 104.516H93.0862C92.9404 104.516 92.8206 104.636 92.8206 104.782C92.8206 104.933 92.9404 105.053 93.0862 105.053H95.9196C96.0706 105.053 96.1904 104.933 96.1904 104.782ZM91.9196 99.8081H97.0915V94.6414H91.9196V99.8081ZM102.019 91.1935V114.449H87.3154L80.8415 135.173C80.7685 135.402 80.5602 135.542 80.331 135.542C80.279 135.542 80.2269 135.537 80.1748 135.522C80.1331 135.506 80.1071 135.485 80.0706 135.464C79.8623 135.345 79.7477 135.095 79.8258 134.855L80.0446 134.152L86.9873 111.933V91.1935H93.3519V92.5841H95.6592V91.1935H102.019ZM38.8102 85.1987L44.0758 87.0841L54.5185 123.97C54.8362 123.938 55.1592 123.949 55.4873 124.011L55.6435 124.037L45.305 87.5268L54.4092 90.7873C54.6852 90.8862 54.9925 90.7404 55.0915 90.4695C55.1904 90.1883 55.0446 89.8862 54.7685 89.7873L39.6539 84.3706L46.581 62.8862C46.6696 62.605 46.5185 62.3081 46.2373 62.2195C45.956 62.1258 45.6592 62.282 45.5706 62.5581L38.4821 84.532C38.3935 84.8081 38.5394 85.0998 38.8102 85.1987ZM99.2894 158.209L91.7998 153.391L71.2425 140.157C70.6383 139.766 69.9456 139.532 69.2269 139.48L49.581 137.954L30.9039 136.501L8.56541 134.766C7.62791 134.694 7.20603 135.917 7.99249 136.438L17.8362 142.959C18.0342 143.084 18.2269 143.209 18.4144 143.339L24.8519 147.605L25.3519 147.402L31.8831 151.881L31.6435 152.1L32.3623 152.579C32.4821 152.542 32.6019 152.501 32.7269 152.464L35.8623 154.61L40.3935 154.86L54.6748 149.855C54.9508 149.756 55.2529 149.902 55.3519 150.178C55.4508 150.454 55.305 150.761 55.0237 150.855L43.1748 155.011L51.2842 155.454L56.7998 155.97L80.5394 158.188L93.0706 159.36C93.1071 159.157 93.2633 158.985 93.4769 158.938C93.7581 158.871 94.0446 159.048 94.1123 159.334L94.1435 159.459L98.7112 159.886C99.6644 159.975 100.091 158.73 99.2894 158.209ZM61.7581 117.381L61.8467 117.428L62.1852 117.621C62.3831 117.735 62.6435 117.667 62.7633 117.47L67.0185 110.574C67.1435 110.376 67.0862 110.115 66.8935 109.99L66.5706 109.772L66.3935 109.657C66.1904 109.516 65.9092 109.579 65.7842 109.792L61.6019 116.782C61.4769 116.99 61.5446 117.261 61.7581 117.381ZM52.1175 65.5841C52.7998 65.407 53.5862 62.7873 54.3623 59.1414C51.4769 59.8185 49.6019 60.5633 48.6331 61.0164L49.8362 66.4018C50.5133 66.0841 51.2685 65.8081 52.1175 65.5841ZM94.2373 88.73L93.904 89.8081H94.2373V88.73ZM86.43 62.7352L87.029 59.2143C84.7112 58.8393 82.5185 58.5425 80.43 58.3133C82.0185 60.4227 84.2581 61.8185 86.43 62.7352ZM91.6748 61.8914C91.5602 61.6206 91.6852 61.3081 91.956 61.1935C92.2269 61.0789 92.5394 61.2039 92.654 61.4748L101.17 81.631C101.279 81.8758 101.175 82.1675 100.94 82.2977L96.4144 84.8498C96.4717 84.9695 96.4873 85.1102 96.4456 85.2456L95.0185 89.8081H94.7737V88.0373C94.7737 87.9018 94.6696 87.7925 94.5394 87.7768L95.2477 85.506L82.9352 92.4383C82.6748 92.5841 82.3571 92.4956 82.2112 92.2404C82.0654 91.9852 82.154 91.657 82.4144 91.5164L100.008 81.605L91.6748 61.8914Z" fill="#454582"/>
<path d="M94.5392 87.7768C94.5236 87.7768 94.5184 87.7716 94.508 87.7716C94.3569 87.7716 94.2371 87.8914 94.2371 88.0373V89.8081H94.7736V88.0373C94.7736 87.9018 94.6694 87.7925 94.5392 87.7768ZM55.3309 150.141C55.3361 150.157 55.3465 150.167 55.3517 150.178C55.4507 150.454 55.3049 150.761 55.0236 150.855L33.7059 158.334C33.6434 158.355 33.5861 158.36 33.5288 158.36C33.3049 158.36 33.1017 158.225 33.0236 158.006C32.9299 157.73 33.0757 157.428 33.3517 157.329L54.6746 149.855C54.7892 149.813 54.909 149.824 55.0184 149.86L54.0601 148.761C53.5861 148.214 52.8882 147.917 52.1642 147.949C46.7059 148.178 36.6017 151.23 32.3621 152.579C31.7996 152.756 31.3413 152.907 31.008 153.016C30.6226 153.141 30.409 153.214 30.409 153.214L31.0601 152.626L31.6434 152.1L37.5184 146.798C38.4246 145.98 38.5549 144.6 37.8153 143.626C37.3934 143.069 36.6538 142.865 36.0028 143.126L24.8517 147.605L20.5913 149.313C20.5913 149.313 16.1017 152.824 16.1069 162.975C16.1069 164.47 16.2059 166.11 16.4299 167.907C16.6538 169.688 21.1486 167.282 23.9142 165.615C24.133 165.48 24.3465 165.35 24.5444 165.23C24.6174 165.141 24.7163 165.079 24.8257 165.053C25.5705 164.589 26.0496 164.266 26.0496 164.266L29.3465 165.501L32.1799 166.558C33.9559 167.225 35.9559 166.808 37.3257 165.496L43.1121 159.923L35.1538 163.069C35.0913 163.095 35.0236 163.11 34.9559 163.11C34.7476 163.11 34.5444 162.98 34.4611 162.772C34.3569 162.501 34.4871 162.188 34.7632 162.084L43.1486 158.766C43.4194 158.657 43.7319 158.792 43.8361 159.063C43.8621 159.126 43.8674 159.183 43.8674 159.246L50.5549 155.386L55.6382 152.449C56.3517 152.037 56.4299 151.032 55.7892 150.511L55.3309 150.141ZM87.9403 140.475C87.9403 140.475 83.508 139.522 80.133 138.532C78.3726 138.022 76.8986 137.496 76.4976 137.095C75.909 136.506 73.4246 132.464 71.6069 129.449C70.3257 127.329 68.1694 125.891 65.7215 125.532L60.7111 124.787L57.7059 124.339L57.6694 124.334L55.6434 124.037L55.4871 124.011C55.159 123.949 54.8361 123.938 54.5184 123.97C52.8778 124.11 51.4819 125.371 51.2632 127.089L51.133 128.11C51.2476 127.97 51.4299 127.891 51.6226 127.923L66.0549 130.391C66.3465 130.444 66.5392 130.72 66.4924 131.006C66.4455 131.266 66.2215 131.449 65.9663 131.449C65.9351 131.449 65.9038 131.449 65.8778 131.444L51.4455 128.97C51.1955 128.928 51.0288 128.714 51.0132 128.475L50.9871 128.47C49.3049 128.173 47.7215 129.35 47.5184 131.042L47.5132 131.084C47.3309 132.589 48.3153 133.975 49.7736 134.324C49.7736 134.313 49.7684 134.303 49.7736 134.292C49.8101 134.001 50.0809 133.798 50.3726 133.834L65.6486 135.917C65.9403 135.959 66.1434 136.225 66.1017 136.516C66.0653 136.782 65.8413 136.975 65.5757 136.975C65.5549 136.975 65.5288 136.975 65.5028 136.97L50.2267 134.891C50.0496 134.865 49.9142 134.756 49.8361 134.61L49.4403 135.99C49.2476 136.662 49.3153 137.35 49.5809 137.954L69.2267 139.48C69.9455 139.532 70.6382 139.766 71.2424 140.157L91.7996 153.391C90.8934 149.751 90.008 146.298 89.2996 143.574L87.9403 140.475ZM53.9194 84.7352L49.8361 66.4018C50.5132 66.0841 51.2684 65.8081 52.1174 65.5841C52.7996 65.4071 53.5861 62.7873 54.3621 59.1414C54.5549 58.2508 54.7424 57.3029 54.9299 56.3133C59.6694 60.0998 67.1382 59.2925 72.0861 56.5164C74.5965 55.105 76.1121 53.3029 76.9924 51.4175C77.3517 51.0581 77.6903 50.6883 78.0184 50.3185C78.133 52.0425 78.3361 53.5789 78.6642 54.7508C79.0496 56.1206 79.6642 57.2977 80.4299 58.3133C82.0184 60.4227 84.258 61.8185 86.4299 62.7352L82.8882 83.5425C79.1382 86.4279 74.0965 88.4643 67.3309 88.4643C62.1486 88.4643 57.5444 86.9696 53.9194 84.7352Z" fill="#A73C28"/>
<path d="M87.9925 38.2039C86.9404 40.1571 85.2529 41.4539 83.5915 41.7768C83.555 41.7821 83.5238 41.7925 83.4873 41.7977C83.0029 41.881 82.5186 41.881 82.0602 41.7873C81.9665 41.9904 81.8727 42.1935 81.779 42.3966C81.7686 42.4175 81.7529 42.4331 81.7425 42.4591C81.7425 42.4643 81.7217 42.5164 81.68 42.6102C81.0498 43.9539 80.3623 45.2664 79.6279 46.5268C79.1696 47.2508 78.6383 48.0216 78.029 48.7977C78.6383 45.5841 77.7529 42.6935 77.3311 41.4071C77.805 40.5685 78.5081 39.4279 79.154 38.355C81.0238 35.2456 83.3675 31.6987 84.7269 30.7977C84.904 30.6831 84.9821 30.48 84.9561 30.2873C85.6383 30.2352 86.305 30.355 86.904 30.6779C87.279 30.881 87.6019 31.1518 87.8779 31.4696C89.2061 33.006 89.3154 35.7352 87.9925 38.2039ZM75.0863 33.3966C74.9821 33.5112 74.8415 33.5685 74.6956 33.5737C74.5706 33.5737 74.4404 33.5268 74.3363 33.4383C71.7269 31.1102 69.18 32.1987 69.0758 32.2456C68.805 32.3602 68.4925 32.2456 68.3727 31.9748C68.2529 31.7091 68.3675 31.3966 68.6331 31.2768C68.7686 31.2143 71.904 29.8393 75.0446 32.6466C75.2633 32.8393 75.2842 33.1779 75.0863 33.3966ZM72.2998 36.756C72.2321 37.3914 71.6592 37.855 71.0186 37.7873C70.3779 37.7196 69.9196 37.1466 69.9873 36.506C70.055 35.8654 70.6279 35.4071 71.2686 35.4748C71.9092 35.5425 72.3675 36.1154 72.2998 36.756ZM61.2061 30.9956C61.1019 31.1206 60.9561 31.1831 60.805 31.1883C60.6852 31.1883 60.5602 31.1466 60.4561 31.0581C57.7581 28.7925 55.1904 30.0112 55.1644 30.0216C54.8988 30.1518 54.5811 30.0425 54.4508 29.7768C54.3206 29.5164 54.43 29.1987 54.6956 29.0685C54.8258 29.006 57.9196 27.5373 61.1436 30.2456C61.3675 30.4383 61.3936 30.7716 61.2061 30.9956ZM59.279 35.355C59.2113 35.9904 58.6383 36.4539 57.9977 36.3862C57.3571 36.3185 56.8988 35.7456 56.9665 35.105C57.0342 34.4643 57.6071 34.006 58.2477 34.0737C58.8883 34.1414 59.3467 34.7143 59.279 35.355ZM81.3415 29.6779C77.1696 28.5581 71.4404 27.6623 70.3311 20.8758C69.5394 16.0268 65.2633 15.4123 63.1331 15.4123C59.18 20.7612 53.8102 23.3654 49.8727 24.6154C49.4352 28.8081 49.055 33.8706 49.6019 38.9018C51.2008 38.605 58.8831 37.3341 62.2008 37.9071C62.2425 37.9123 62.2425 37.9123 62.2738 37.9175C62.4925 37.2977 62.7529 36.6154 63.055 35.8446C63.1644 35.5685 63.4717 35.4383 63.7477 35.5425C64.0186 35.6518 64.154 35.9591 64.0446 36.2352C63.805 36.8393 63.5706 37.4748 63.3467 38.105C63.3206 38.0998 75.1383 40.4435 76.5915 40.7248C77.2061 39.6362 78.1956 37.8446 79.2165 36.2143C80.5029 34.1675 81.9404 32.0633 83.1383 30.7977C83.1592 30.7821 83.1748 30.7612 83.1904 30.7404C82.7061 30.2456 82.0967 29.881 81.3415 29.6779Z" fill="#E24E34"/>
<defs>
<filter id="filter0_i_129_575" x="4.78076" y="0" width="131.34" height="202.459" filterUnits="userSpaceOnUse" color-interpolation-filters="sRGB">
<feFlood flood-opacity="0" result="BackgroundImageFix"/>
<feBlend mode="normal" in="SourceGraphic" in2="BackgroundImageFix" result="shape"/>
<feColorMatrix in="SourceAlpha" type="matrix" values="0 0 0 0 0 0 0 0 0 0 0 0 0 0 0 0 0 0 127 0" result="hardAlpha"/>
<feOffset dy="4"/>
<feGaussianBlur stdDeviation="2"/>
<feComposite in2="hardAlpha" operator="arithmetic" k2="-1" k3="1"/>
<feColorMatrix type="matrix" values="0 0 0 0 0 0 0 0 0 0 0 0 0 0 0 0 0 0 0.25 0"/>
<feBlend mode="normal" in2="shape" result="effect1_innerShadow_129_575"/>
</filter>
</defs>
</svg>
