<svg width="297" height="443" viewBox="0 0 297 443" fill="none" xmlns="http://www.w3.org/2000/svg">
<path fill-rule="evenodd" clip-rule="evenodd" d="M103.814 166.643C107.296 162.956 108.731 155.873 108.173 151.918C107.773 149.559 106.589 147.403 104.811 145.8C103.033 144.198 100.766 143.242 98.3777 143.089C92.7746 142.774 86.3831 143.181 81.6795 146.21C78.2735 148.585 75.1541 151.347 72.3834 154.439C72.9424 152.21 73.0574 149.892 72.7219 147.619C72.1866 143.652 68.3218 143.036 66.0702 143.985C65.3798 144.202 64.7573 144.594 64.2636 145.123C63.7698 145.652 63.4216 146.3 63.253 147.004C63.0566 147.821 62.9828 148.662 63.0341 149.5C62.4231 148.533 61.4711 147.831 60.3668 147.532C59.6144 147.403 58.843 147.436 58.1047 147.63C57.3664 147.824 56.6784 148.175 56.0871 148.658C54.8616 149.481 53.9837 150.728 53.6221 152.159C53.1981 153.855 54.5033 156.721 54.5033 156.721C53.3143 156.86 52.217 157.428 51.4175 158.319C50.0022 159.695 49.1036 161.516 48.8725 163.476C48.6886 165.016 48.9726 166.576 49.6874 167.953C50.5056 169.038 51.4199 170.047 52.4191 170.969C51.7453 171.578 51.1201 172.24 50.5492 172.947C49.4425 174.173 48.5994 175.613 48.0723 177.178C47.5333 179.185 47.5209 181.298 48.0364 183.312C48.4715 184.785 49.4301 186.048 50.7317 186.864C52.0334 187.68 53.5883 187.992 55.1039 187.741C54.1644 189.087 53.4102 190.554 52.8615 192.101C52.6214 192.949 52.5724 193.84 52.7181 194.709C52.8637 195.579 53.2005 196.405 53.704 197.128C55.2274 198.796 56.8841 200.336 58.6578 201.734L62.1998 209.163L65.8375 207.876C65.8375 207.876 66.3894 211.337 68.6069 212.71C70.5885 213.82 72.9187 214.134 75.1234 213.588C76.5785 213.192 77.868 210.908 77.868 210.908C77.868 210.908 79.6781 213.531 82.2028 213.888C84.7276 214.245 98.4191 210.63 98.4191 210.63L86.8531 178.218C86.8531 178.218 100.326 170.329 103.811 166.643H103.814Z" fill="#061428"/>
<path fill-rule="evenodd" clip-rule="evenodd" d="M100.111 156.057C102.546 161.06 104.257 166.383 105.194 171.867C106.022 177.678 106.152 184.965 105.186 189.159C104.456 192.549 102.544 195.57 99.7914 197.681C97.7091 199.228 93.113 201.254 88.8039 199.97C84.4948 198.686 81.1322 196.521 79.2559 193.825C79.7832 192.077 80.0468 190.26 80.0377 188.434C80.0156 186.761 79.7523 185.101 79.2559 183.503C76.7449 184.404 74.9063 182.797 74.3168 180.265C73.7272 177.734 74.9919 175.891 77.3244 176.204C79.6569 176.517 83.3028 173.984 82.6691 170.486C85.5596 170.506 88.4203 169.902 91.0555 168.714C93.5516 167.69 95.6771 165.93 97.1498 163.669C98.6215 161.429 100.113 158.059 100.113 156.063L100.111 156.057Z" fill="#E88D95"/>
<path fill-rule="evenodd" clip-rule="evenodd" d="M81.1884 146.531C81.0964 146.715 80.0368 147.375 79.7259 147.658C78.9423 148.435 78.2075 149.26 77.5259 150.128C75.6375 152.332 74.0986 154.814 72.9629 157.486C71.1731 161.783 69.627 166.742 69.4752 171.44C69.3829 173.027 69.5277 174.619 69.9047 176.163C70.0378 176.708 70.1986 177.246 70.3867 177.774C70.4465 177.95 70.8797 178.794 70.7095 178.794C70.0301 178.108 69.4023 177.372 68.8314 176.594C67.3947 174.487 65.8311 172.598 65.2351 170.045C64.6354 167.749 64.3286 165.386 64.3218 163.013C64.5671 157.284 67.031 151.875 71.1924 147.929C73.134 146.002 76.0368 144.387 78.8145 144.387C80.1543 144.407 81.4481 144.879 82.4852 145.727L81.1884 146.534V146.531Z" fill="#AB8DE5"/>
<path fill-rule="evenodd" clip-rule="evenodd" d="M129.514 398.307C131.911 400.268 135.341 402.2 137.423 403.681C139.131 405.006 141.031 406.063 143.057 406.816C144.673 407.298 144.944 408.998 143.538 409.462C142.132 409.925 139.767 409.653 137.217 409.605L128.59 409.445C126.065 409.397 122.598 409.515 120.967 408.623C119.336 407.731 119.335 405.745 119.335 404.153C119.335 402.561 121.24 398.517 121.24 398.517C121.24 398.517 127.12 396.345 129.518 398.307H129.514Z" fill="#061428"/>
<path fill-rule="evenodd" clip-rule="evenodd" d="M61.7455 372.661C61.3197 375.053 61.1937 378.088 60.8984 381.692C60.7573 385.25 60.8282 388.812 61.1109 392.361C61.2029 394.678 59.6779 396.054 58.1888 393.601C56.1325 389.979 54.4549 386.154 53.1825 382.188C52.0218 378.357 51.9004 373.734 51.3347 371.757C50.7691 369.78 50.3028 367.583 51.1434 367.41L57.625 366.074C57.625 366.074 62.1695 370.272 61.7455 372.663V372.661Z" fill="#061428"/>
<path fill-rule="evenodd" clip-rule="evenodd" d="M127.544 249.31C128.034 252.839 129.313 260.807 130.145 268.073C130.976 275.339 130.668 285.191 131.064 289.525C131.461 293.859 131.505 306.145 131.616 309.76L131.905 319.136C131.951 320.642 131.881 341.707 131.383 347.618C130.886 353.528 130.431 365.348 130.215 373.123L129.838 386.768L129.519 398.31L121.241 398.519C121.241 398.519 118.178 390.425 116.429 384.011C114.68 377.597 114.438 374.055 113.346 367.847C112.254 361.64 110.358 354.567 109.713 351.279C109.068 347.992 106.757 339.15 106.757 339.15L114.912 315.165L108.29 273.713L117.58 250.259C117.58 250.259 127.053 245.786 127.541 249.316L127.544 249.31Z" fill="#8669BE"/>
<path fill-rule="evenodd" clip-rule="evenodd" d="M94.2057 250.254C92.3661 252.059 90.6186 255.68 89.3309 258.249C88.0432 260.818 87.0977 265.958 86.9009 269.163C86.701 274.775 86.8285 280.393 87.2826 285.989C87.7738 290.932 89.72 296.827 91.9734 301.804L97.1241 313.16C92.5545 317.927 88.4395 323.111 84.8324 328.642C79.4352 337.133 73.8633 342.365 69.0833 348.532L56.6904 364.518L61.819 373.12L64.3024 371.189C64.3024 371.189 70.3903 366.03 76.4303 361.744L98.3611 346.184C104.654 341.719 113.161 332.939 117.568 328.39C121.974 323.841 122.727 319.625 122.882 315.37C123.036 311.115 122.247 295.466 121.905 290.108L120.557 268.98L119.965 259.708C119.965 259.708 123.634 255.349 124.968 253.27L127.462 249.379C127.459 248.577 127.383 247.776 127.235 246.988L126.258 241.415C126.025 240.087 124.201 238.136 124.201 238.136C124.201 238.136 96.0286 248.446 94.1937 250.251L94.2057 250.254Z" fill="#AB8DE5"/>
<path fill-rule="evenodd" clip-rule="evenodd" d="M136.306 161.642C135.926 162.705 135.48 163.744 134.971 164.751C132.764 168.686 129.294 171.76 125.122 173.477C122.588 174.533 119.212 175.248 116.711 173.624C112.779 171.072 113.554 165.696 114.917 161.88C115.486 160.567 116.272 159.359 117.242 158.307C117.572 157.922 117.978 157.657 118.334 157.304L123.806 157.741C123.714 157.793 123.508 157.763 123.396 157.815C123.091 158.003 122.817 158.237 122.584 158.509C121.432 159.562 120.107 161.042 119.857 162.648C119.812 162.974 119.804 163.303 119.832 163.63C119.862 164.056 119.999 164.467 120.23 164.825C121.028 165.89 122.924 165.161 123.755 164.582C124.431 164.112 125.063 163.584 125.645 163.002C126.335 162.216 126.87 161.307 127.223 160.323L136.306 161.639V161.642Z" fill="#EDC152"/>
<path fill-rule="evenodd" clip-rule="evenodd" d="M114.648 171.382C113.181 168.602 113.878 164.789 114.917 161.88C115.486 160.567 116.272 159.359 117.242 158.307C117.572 157.922 117.978 157.657 118.334 157.304L123.805 157.741C123.713 157.793 123.508 157.763 123.396 157.815C123.091 158.003 122.817 158.237 122.584 158.509C121.431 159.562 120.107 161.042 119.857 162.648C119.812 162.974 119.803 163.303 119.832 163.63C119.862 164.056 119.999 164.467 120.23 164.825C121.028 165.89 122.924 165.161 123.755 164.582C124.43 164.112 125.063 163.584 125.645 163.002C126.334 162.216 126.87 161.307 127.223 160.323L134.279 161.345C134.287 161.903 134.16 162.455 133.908 162.954C133.657 163.452 133.288 163.882 132.834 164.206C132.422 164.488 131.971 164.71 131.496 164.863C130.968 165.003 130.529 164.933 130.132 165.387C129.478 166.133 129.64 167.158 129.266 168.012C128.997 168.559 128.527 168.982 127.954 169.192C127.329 169.403 126.658 169.439 126.013 169.297C125.529 169.211 124.844 168.872 124.357 169.087C123.002 169.69 123.003 171.719 121.76 172.497C121.454 172.663 121.111 172.75 120.762 172.75C120.414 172.75 120.071 172.663 119.765 172.497C118.629 171.993 117.43 170.908 116.17 170.74C115.881 170.691 115.584 170.726 115.314 170.84C115.044 170.954 114.812 171.142 114.645 171.383L114.648 171.382Z" fill="#D2416E"/>
<path fill-rule="evenodd" clip-rule="evenodd" d="M120.171 198.118C123.569 197.382 127.023 196.932 130.496 196.775L141.562 195.901C144.116 195.698 147.099 195.925 147.08 193.83C147.062 191.735 144.346 179.854 142.8 175.409C141.255 170.964 141.072 164.604 139.744 163.702C138.416 162.801 139.313 162.599 138.128 162.606C137.027 162.638 135.951 162.277 135.093 161.586C134.291 160.923 133.545 161.586 132.449 161.586C131.352 161.586 128.267 163.459 124.972 161.586C121.676 159.713 121.833 158.596 121.667 157.97C121.502 157.345 120.686 158.286 118.965 157.86C117.244 157.434 117.229 154.692 118.312 153.276L121.122 149.597C122.204 148.181 125.52 147.33 127.526 147.312C129.532 147.295 131.941 147.272 134.376 147.252C136.812 147.231 139.343 147.872 140.21 148.751C141.289 149.843 142.168 151.348 143.069 152.262C145.009 154.742 146.753 157.37 148.284 160.121L153.131 170.586C154.571 173.693 158.225 178.864 160.431 186.345C162.638 193.826 165.149 196.81 164.71 200.853C164.271 204.897 163.055 205.28 158.153 207.877C153.252 210.473 145.792 216.017 137.424 218.865L124.028 223.423C124.028 223.423 117.181 198.93 120.171 198.118Z" fill="#E88D95"/>
<path fill-rule="evenodd" clip-rule="evenodd" d="M15.8935 208.453C15.2281 208.172 14.6763 207.676 14.3261 207.044C13.976 206.412 13.8478 205.681 13.962 204.967C14.0007 203.181 15.7914 201.3 18.5535 201.131C21.3155 200.962 27.6251 201.359 30.5527 201.205C33.4803 201.05 34.9427 201.402 36.3959 202.538C37.1 203.027 37.5947 203.763 37.7821 204.599C37.9695 205.436 37.8359 206.312 37.4077 207.054C37.1049 207.657 36.6258 208.152 36.0342 208.475C35.4427 208.798 34.7668 208.933 34.0965 208.863C32.3103 208.898 17.7514 209.49 15.9009 208.453H15.8935Z" fill="#EDC152"/>
<path fill-rule="evenodd" clip-rule="evenodd" d="M41.1115 208.76C40.3717 208.308 39.7888 207.639 39.442 206.844C39.0952 206.05 39.0011 205.168 39.1726 204.318C39.5828 202.663 40.2018 201.724 42.6613 201.299C45.5057 200.756 48.3936 200.471 51.2896 200.448C54.7212 200.448 58.9447 200.816 60.2655 201.299C60.9655 201.511 61.5578 201.983 61.9205 202.618C62.2833 203.252 62.3888 204.002 62.2154 204.713C62.0601 205.64 61.6172 206.494 60.9494 207.156C60.2815 207.817 59.4225 208.252 58.4941 208.398C56.4126 208.647 42.5362 209.52 41.1106 208.76H41.1115Z" fill="#EDC152"/>
<path fill-rule="evenodd" clip-rule="evenodd" d="M26.9022 201.426C25.2145 200.936 24.314 198.463 25.1961 196.749C26.0781 195.036 28.0731 193.78 31.8073 193.573L39.3493 193.155C41.0629 193.063 45.176 193.172 46.7461 193.311C48.3161 193.45 50.4141 194.558 50.5061 196.467C50.5643 197.09 50.4933 197.718 50.2976 198.312C50.1019 198.906 49.7857 199.453 49.3688 199.919C48.9519 200.386 48.4432 200.761 47.8747 201.021C47.3061 201.282 46.6899 201.422 46.0645 201.434C42.609 201.563 28.5891 201.915 26.9004 201.426L26.9022 201.426Z" fill="#EDC152"/>
<path fill-rule="evenodd" clip-rule="evenodd" d="M13.9603 205.465V204.967C13.9989 203.181 15.7897 201.3 18.5517 201.131C21.3138 200.962 27.6233 201.359 30.5509 201.205C33.4785 201.05 34.9428 201.402 36.396 202.538C36.9814 202.99 37.4277 203.597 37.6837 204.291C37.1331 204.915 36.4586 205.418 35.7032 205.767C34.9477 206.117 34.1278 206.306 33.2955 206.321C31.5158 206.25 30.5978 204.212 28.8347 204.33C27.6233 204.411 27.1883 205.547 26.3154 206.201C26.0669 206.364 25.7882 206.475 25.4957 206.529C25.2033 206.583 24.9032 206.577 24.613 206.513C23.1938 206.364 22.5177 204.988 21.2549 204.521C20.7573 204.369 20.2294 204.345 19.7198 204.451C19.4901 204.464 19.2637 204.513 19.0484 204.594C18.3826 205.045 17.7553 205.551 17.173 206.105C16.7435 206.364 16.2429 206.481 15.7431 206.437C15.2434 206.394 14.7702 206.193 14.3916 205.864C14.2368 205.743 14.0916 205.609 13.9575 205.465H13.9603Z" fill="#D2416E"/>
<path fill-rule="evenodd" clip-rule="evenodd" d="M24.954 197.394C25.0098 197.171 25.091 196.955 25.1959 196.75C26.0771 195.037 28.073 193.78 31.8072 193.574L39.3492 193.156C41.0627 193.064 45.1759 193.173 46.746 193.312C47.4596 193.362 48.1507 193.583 48.7607 193.956C49.3706 194.33 49.8813 194.846 50.2493 195.459C50.147 195.452 50.0443 195.459 49.944 195.48C47.9508 195.878 47.4716 198.638 45.1833 198.638C44.3642 198.595 43.5808 198.289 42.9501 197.765C42.263 197.274 41.5502 196.364 40.5955 196.483C38.9611 196.687 38.2786 199.183 36.4741 199.011C35.5594 198.877 34.7168 198.438 34.0827 197.765C33.6798 197.392 33.0811 196.719 32.4759 196.719C32.1341 196.701 31.7913 196.715 31.4522 196.761C30.9205 196.867 30.5324 197.497 30.1709 197.834C29.5208 198.505 28.6449 198.912 27.7124 198.976C27.1635 198.936 26.6307 198.773 26.1531 198.499C25.6756 198.226 25.2655 197.848 24.9531 197.395L24.954 197.394Z" fill="#D2416E"/>
<path fill-rule="evenodd" clip-rule="evenodd" d="M39.0808 205.346C39.0599 205 39.0909 204.653 39.1728 204.316C39.583 202.661 40.202 201.723 42.6614 201.298C45.5059 200.754 48.3938 200.469 51.2897 200.446C54.7213 200.446 58.9449 200.814 60.2656 201.298C60.9656 201.509 61.558 201.981 61.9207 202.616C62.2834 203.251 62.3889 204.001 62.2155 204.711C62.2002 204.787 62.1828 204.862 62.1631 204.936C61.2308 204.839 60.3322 204.534 59.5335 204.043C58.7188 203.443 57.7281 203.129 56.7163 203.152C54.4675 203.422 53.3821 206.187 51.2051 206.426C50.2124 206.407 49.2639 206.012 48.5497 205.323C47.9979 204.73 47.3844 203.823 46.4812 203.759C44.8256 203.631 43.9058 205.289 42.5262 205.828C41.9577 205.998 41.3595 206.045 40.7713 205.967C40.183 205.888 39.6181 205.686 39.1139 205.373L39.0845 205.347L39.0808 205.346Z" fill="#D2416E"/>
<path fill-rule="evenodd" clip-rule="evenodd" d="M9.19775 208.409C9.92708 210.427 11.0041 212.301 12.3801 213.946C13.6512 215.484 16.6589 217.165 18.2059 217.165H29.3019C30.6733 217.165 49.6507 217.165 54.4905 216.614C59.3303 216.062 61.7851 215.99 63.0194 214.891C64.2537 213.792 68.2234 208.085 68.2234 208.085C63.4254 208.444 58.6114 208.544 53.8025 208.384C43.9123 208.209 36.3068 208.592 28.7041 208.683C21.1013 208.774 11.7372 207.879 9.19775 208.407V208.409Z" fill="#061428"/>
<path fill-rule="evenodd" clip-rule="evenodd" d="M79.4462 215.408C77.1468 217.941 76.7789 220.103 75.1887 224.344L69.0861 240.587C68.8377 241.248 67.2465 239.415 64.3143 236.347C61.3821 233.279 56.9121 228.59 53.8934 225.425L49.3645 220.683C49.6145 220.147 49.8251 219.593 49.9946 219.027C50.0657 218.465 49.9778 217.894 49.7409 217.38C49.504 216.865 49.1277 216.427 48.6545 216.116C47.6519 215.331 44.8669 215.022 42.8545 215.02C40.842 215.017 39.9453 215.393 39.81 216.079C39.6748 216.765 37.5805 216.57 34.9923 216.758C32.4041 216.946 30.17 216.258 29.1059 217.186C28.0417 218.113 29.5657 219.511 31.6104 220.045L38.5601 221.865C40.1099 222.272 44.5036 223.421 44.5036 223.421C44.5036 223.421 45.4988 226.529 46.1978 228.493L50.0488 239.305C51.3512 242.959 55.0091 250.669 56.8551 253.328C58.701 255.986 61.9561 260.254 67.6733 259.651C73.3905 259.048 79.071 252.255 81.5424 250.251C84.0138 248.247 90.0042 242.309 90.0042 242.309C90.0042 242.309 81.7263 212.877 79.4352 215.405L79.4462 215.408Z" fill="#E88D95"/>
<path fill-rule="evenodd" clip-rule="evenodd" d="M121.811 204.754C124.98 209.813 127.238 222.072 127.238 222.072L124.027 223.423C124.027 223.423 122.486 211.11 121.811 204.752L121.811 204.754Z" fill="#DA6771"/>
<path fill-rule="evenodd" clip-rule="evenodd" d="M82.8439 223.936C83.7637 228.655 84.1435 247.959 84.1435 247.959L90.0116 242.316C90.0116 242.316 81.9241 219.214 82.8439 223.936Z" fill="#DA6771"/>
<path fill-rule="evenodd" clip-rule="evenodd" d="M79.4463 215.408C81.6176 213.224 83.9887 211.249 86.5284 209.507C88.2049 208.509 89.9897 207.704 91.8483 207.11L101.796 203.44C101.796 203.44 105.291 201.551 107.59 200.374C109.889 199.198 112.778 198.903 114.686 198.407C116.496 198.098 118.337 198.001 120.17 198.118C121.522 202.848 122.488 207.679 123.06 212.565L124.966 233.971C124.922 235.39 124.668 236.794 124.212 238.139L94.2048 250.254C94.2048 250.254 92.7139 247.403 91.3646 245.132C90.0153 242.861 88.15 237.281 86.7188 234.506C85.2877 231.731 83.7986 226.065 82.4824 223.147C81.1662 220.228 80.1757 217.027 79.4472 215.408H79.4463Z" fill="#FBDC8E"/>
<path fill-rule="evenodd" clip-rule="evenodd" d="M89.3348 198.431C89.4525 198.332 89.2989 198.746 89.3403 198.895C89.3955 199.079 89.4911 199.263 89.5537 199.447C89.9105 200.52 90.3088 201.595 90.6169 202.682C90.9324 203.793 91.1136 204.944 91.4686 206.045C91.5091 206.171 91.5983 207.046 91.8503 207.11C92.641 207.409 93.4521 207.65 94.2776 207.833C94.8278 207.892 95.3829 207.892 95.9331 207.833C96.9905 207.777 98.0162 207.453 98.9135 206.891C99.8109 206.329 100.55 205.548 101.062 204.621C101.352 204.255 101.598 203.858 101.798 203.436C101.521 202.377 101.136 201.35 100.648 200.371L98.193 193.826" fill="#E88D95"/>
<path d="M99.3408 176.345C99.4682 176.077 99.6904 175.866 99.9644 175.753C102.28 174.402 102.898 178.217 101.513 178.788M100.194 172.103C100.631 172.502 101.206 172.717 101.797 172.701C102.222 172.71 102.635 172.56 102.956 172.28C103.276 172.001 103.48 171.612 103.529 171.189L100.194 172.103ZM90.5607 174.643C90.6012 174.611 90.4292 174.561 90.4292 174.561C90.4292 174.561 90.6996 174.745 90.8265 174.85C91.1945 175.138 91.6106 175.358 92.0553 175.5C93.6327 175.973 96.0296 175.61 96.0296 173.477L90.5607 174.643Z" stroke="#061428" stroke-width="1.587" stroke-linecap="round" stroke-linejoin="round"/>
<path fill-rule="evenodd" clip-rule="evenodd" d="M102.218 181.526C100.435 182.926 98.2878 183.785 96.0313 184.002C94.4437 184.067 92.8543 183.93 91.301 183.595C91.0901 184.821 91.1605 186.079 91.507 187.274C92.0439 189.2 93.3133 190.839 95.0435 191.841C95.8387 192.284 96.7414 192.497 97.6509 192.457C98.5603 192.417 99.4408 192.125 100.194 191.614C101.626 190.662 102.185 188.974 102.576 187.323C103.115 185.406 102.989 183.364 102.219 181.528L102.218 181.526Z" fill="#DA6771"/>
<path fill-rule="evenodd" clip-rule="evenodd" d="M99.6691 197.766C98.2294 198.748 96.572 199.365 94.8403 199.563C96.4389 200.237 97.2924 200.93 98.73 201.203L101.213 201.677C101.213 201.677 100.149 198.982 99.6654 197.766H99.6691Z" fill="#DA6771"/>
<path d="M122.486 156.42C122.884 155.519 123.511 154.738 124.304 154.155" stroke="#DA6771" stroke-width="1.427" stroke-linecap="round" stroke-linejoin="round"/>
<path d="M32.9082 401.712V401.125L31.5084 399.366L28.3004 395.407L24.8592 391.22C24.8592 391.22 21.5462 388.915 20.6947 388.516C17.5917 387.074 14.5354 385.971 10.8842 385.971C8.63866 385.971 0.245525 386.311 0.228027 387.73C0.228027 389.836 11.9808 397.806 20.6014 401.676C24.3576 401.712 32.9082 401.712 32.9082 401.712Z" fill="#19A5A1"/>
<path d="M31.1289 401.712C19.1662 392.475 -5.24915 341.981 1.00925 323.273C14.3426 330.105 28.9708 353.663 35.8708 373.556C36.236 374.85 36.5281 376.164 36.7457 377.491L39.5454 390.393L40.2453 401.712H31.1289Z" fill="#32CFCB"/>
<path d="M39.295 401.712C35.2589 398.416 33.9698 388.657 33.9348 385.015C33.8707 378.218 34.9089 373.21 40.689 365.733C46.4691 358.255 44.9118 345.846 52.6109 337.483C60.3099 329.12 65.3726 326.792 74.4832 326.792C83.5937 326.792 86.4809 341.641 86.4576 345.377C86.3526 360.437 76.9096 362.566 71.1586 369.762C66.9766 374.981 66.65 379.25 65.3843 381.69C58.5835 394.821 53.0775 399.782 48.9947 401.712" fill="#73E5E2"/>
<path d="M41.4995 400.621C41.6162 374.916 68.557 336.31 74.3138 330.522" stroke="white" stroke-width="0.4" stroke-linecap="round" stroke-linejoin="round"/>
<path d="M42.9754 388.956C39.9949 385.69 37.2828 376.429 37.691 374.025" stroke="white" stroke-width="0.4" stroke-linecap="round" stroke-linejoin="round"/>
<path d="M35.3404 399.512C31.1176 391.971 11.0826 355.282 3.58765 328.252" stroke="white" stroke-width="0.4" stroke-linecap="round" stroke-linejoin="round"/>
<path d="M48.9946 401.712H61.5347L51.036 441.033H22.9636L12.634 401.712H48.9946Z" fill="#061428"/>
<path d="M4.30518 388.534C10.4236 388.956 18.1226 389.238 23.582 392.962" stroke="white" stroke-width="0.4" stroke-linecap="round" stroke-linejoin="round"/>
<path d="M184.347 289.842L136.064 440.901" stroke="#061428" stroke-width="4" stroke-miterlimit="10" stroke-linecap="round"/>
<path d="M184.347 289.842L232.617 440.901" stroke="#061428" stroke-width="4" stroke-miterlimit="10" stroke-linecap="round"/>
<path d="M151.913 391.311L205.739 356.807" stroke="#061428" stroke-width="2" stroke-miterlimit="10" stroke-linecap="round"/>
<path d="M184.347 308.836C231.807 308.836 270.28 300.332 270.28 289.842C270.28 279.351 231.807 270.847 184.347 270.847C136.888 270.847 98.4146 279.351 98.4146 289.842C98.4146 300.332 136.888 308.836 184.347 308.836Z" fill="#E8EBF0"/>
<path d="M162.738 356.807L216.55 391.311" stroke="#061428" stroke-width="2" stroke-miterlimit="10" stroke-linecap="round"/>
<path d="M272.439 104.366C272.439 101.747 270.315 99.6235 267.696 99.6235C265.077 99.6235 262.953 101.747 262.953 104.366V120.737C262.953 123.357 265.077 125.48 267.696 125.48C270.315 125.48 272.439 123.357 272.439 120.737V104.366Z" fill="#061428"/>
<path d="M267.696 153C272.951 153 277.212 148.74 277.212 143.485C277.212 138.229 272.951 133.969 267.696 133.969C262.441 133.969 258.181 138.229 258.181 143.485C258.181 148.74 262.441 153 267.696 153Z" fill="#FBDC8E"/>
<path d="M267.696 114.796C263.928 114.795 260.197 115.536 256.715 116.977C253.234 118.419 250.07 120.532 247.405 123.196C244.741 125.86 242.627 129.023 241.185 132.504C239.742 135.985 239 139.716 239 143.485H296.385C296.385 135.876 293.362 128.579 287.982 123.199C282.602 117.818 275.305 114.796 267.696 114.796Z" fill="#AB8DE5"/>
<path d="M267.696 105.086V1" stroke="#061428" stroke-width="2" stroke-linecap="round" stroke-linejoin="round"/>
</svg>
