<svg width="27" height="73" viewBox="0 0 27 73" fill="none" xmlns="http://www.w3.org/2000/svg">
<path d="M13.5001 13.695C16.9193 13.695 19.6911 10.9232 19.6911 7.50399C19.6911 4.08479 16.9193 1.31299 13.5001 1.31299C10.0809 1.31299 7.30908 4.08479 7.30908 7.50399C7.30908 10.9232 10.0809 13.695 13.5001 13.695Z" stroke="#061428" stroke-width="2.5" stroke-miterlimit="10"/>
<path d="M20.283 71.688L20.873 47.459C23.146 46.64 25.438 44.737 25.198 42.349L23.765 23.911C23.525 21.52 21.361 19.563 18.958 19.563H8.04204C5.63904 19.563 3.47504 21.52 3.23504 23.911L1.80104 42.349C1.56104 44.74 3.85204 46.64 6.12804 47.459L6.71504 71.688" stroke="#061428" stroke-width="2.5" stroke-miterlimit="10" stroke-linecap="round" stroke-linejoin="round"/>
</svg>
