<svg width="24" height="24" viewBox="0 0 24 24" fill="none" xmlns="http://www.w3.org/2000/svg">
<g opacity="0.5">
<path fill-rule="evenodd" clip-rule="evenodd" d="M3.50002 13.787V13.568C3.53316 12.9187 3.74153 12.2904 4.10302 11.75C4.70367 11.1013 5.11642 10.3014 5.29702 9.436C5.29702 8.77 5.29702 8.094 5.35502 7.427C5.65402 4.218 8.82702 2 11.96 2H12.038C15.171 2 18.344 4.218 18.655 7.427C18.713 8.094 18.655 8.77 18.703 9.436C18.8858 10.3031 19.2978 11.1053 19.896 11.759C20.261 12.297 20.469 12.923 20.498 13.569V13.778C20.52 14.648 20.22 15.497 19.654 16.168C18.9 16.9547 17.8864 17.4414 16.801 17.538C13.606 17.881 10.382 17.881 7.18702 17.538C6.10281 17.4371 5.09065 16.9511 4.33402 16.168C3.77846 15.501 3.48232 14.6559 3.50002 13.788V13.787Z" stroke="#061428" stroke-width="1.5" stroke-linecap="round" stroke-linejoin="round"/>
<path d="M9.55518 20.852C10.0622 21.4797 10.7948 21.8841 11.5962 21.9785C12.3977 22.0728 13.2042 21.8498 13.8432 21.357C14.0392 21.211 14.2152 21.041 14.3672 20.852" stroke="#061428" stroke-width="1.5" stroke-linecap="round" stroke-linejoin="round"/>
</g>
</svg>
