<svg width="50" height="50" viewBox="0 0 50 50" fill="none" xmlns="http://www.w3.org/2000/svg">
<g clip-path="url(#clip0_29_1110)">
<g filter="url(#filter0_d_29_1110)">
<path d="M49.9883 33.3208H0.012207V7.50729C0.012207 5.17552 1.8445 3.34375 4.17679 3.34375H45.8237C48.156 3.34375 49.9883 5.17552 49.9883 7.50729V33.3208ZM1.67835 31.6552H48.3221V7.50729C48.3221 6.09167 47.2393 5.00937 45.8237 5.00937H4.17679C2.76117 5.00937 1.67835 6.09167 1.67835 7.50729V31.6552Z" fill="black"/>
</g>
<g filter="url(#filter1_d_29_1110)">
<path d="M37.1611 46.6437H12.7559L17.7538 36.6516H32.0798L37.1611 46.6437ZM15.5048 44.9781H34.4954L31.1637 38.3167H18.8366L15.5048 44.9781Z" fill="black"/>
</g>
<g filter="url(#filter2_d_29_1110)">
<path d="M39.1599 46.6438H10.8401C10.3407 46.6438 10.0073 46.3104 10.0073 45.811C10.0073 45.3115 10.3407 44.9781 10.8401 44.9781H39.1599C39.6594 44.9781 39.9927 45.3115 39.9927 45.811C39.9927 46.3104 39.5766 46.6438 39.1599 46.6438Z" fill="black"/>
</g>
<g filter="url(#filter3_d_29_1110)">
<path d="M45.8237 38.3167H4.17679C1.8445 38.3167 0.012207 36.4849 0.012207 34.1531V31.6552H49.9883V34.1531C49.9883 36.4849 48.0726 38.3167 45.8237 38.3167ZM1.67835 33.3208V34.1531C1.67835 35.5688 2.76117 36.6516 4.17679 36.6516H45.8237C47.2393 36.6516 48.3221 35.5688 48.3221 34.1531V33.3208H1.67835Z" fill="black"/>
</g>
<g filter="url(#filter4_d_29_1110)">
<path d="M25.8326 34.9859C25.8326 35.0406 25.8274 35.0948 25.8165 35.1484C25.8061 35.2021 25.7904 35.2542 25.7691 35.3047C25.7482 35.3552 25.7227 35.4031 25.6925 35.4484C25.6618 35.4943 25.6274 35.5365 25.5889 35.575C25.5503 35.6136 25.5081 35.6479 25.4623 35.6787C25.417 35.7089 25.3691 35.7344 25.3186 35.7552C25.268 35.7761 25.216 35.7922 25.1623 35.8026C25.1087 35.8136 25.0545 35.8188 24.9998 35.8188C24.9451 35.8188 24.891 35.8136 24.8373 35.8026C24.7837 35.7922 24.7316 35.7761 24.6811 35.7552C24.6305 35.7344 24.5826 35.7089 24.5373 35.6787C24.4915 35.6479 24.4493 35.6136 24.4107 35.575C24.3722 35.5365 24.3378 35.4943 24.3071 35.4484C24.2769 35.4031 24.2514 35.3552 24.23 35.3047C24.2092 35.2542 24.1936 35.2021 24.1826 35.1484C24.1722 35.0948 24.167 35.0406 24.167 34.9859C24.167 34.9313 24.1722 34.8771 24.1826 34.8234C24.1936 34.7698 24.2092 34.7177 24.23 34.6672C24.2514 34.6167 24.2769 34.5688 24.3071 34.5234C24.3378 34.4781 24.3722 34.4359 24.4107 34.3974C24.4493 34.3583 24.4915 34.324 24.5373 34.2938C24.5826 34.2636 24.6305 34.2375 24.6811 34.2167C24.7316 34.1958 24.7837 34.1802 24.8373 34.1693C24.891 34.1589 24.9451 34.1531 24.9998 34.1531C25.0545 34.1531 25.1087 34.1589 25.1623 34.1693C25.216 34.1802 25.268 34.1958 25.3186 34.2167C25.3691 34.2375 25.417 34.2636 25.4623 34.2938C25.5081 34.324 25.5503 34.3583 25.5889 34.3974C25.6274 34.4359 25.6618 34.4781 25.6925 34.5234C25.7227 34.5688 25.7482 34.6167 25.7691 34.6672C25.7904 34.7177 25.8061 34.7698 25.8165 34.8234C25.8274 34.8771 25.8326 34.9313 25.8326 34.9859Z" fill="black"/>
</g>
<g filter="url(#filter5_d_29_1110)">
<path d="M29.2479 29.1573H12.5063C11.0901 29.1573 10.0073 28.0745 10.0073 26.6594V11.6708H33.3292V18.4156H31.6636V13.3359H11.6729V26.6594C11.6729 27.1589 12.0063 27.4917 12.5063 27.4917H29.2479V29.1573Z" fill="black"/>
</g>
<g filter="url(#filter6_d_29_1110)">
<path d="M16.6706 19.9974H15.0045C14.0883 19.9974 13.3389 19.2479 13.3389 18.3323V16.6667C13.3389 15.7511 14.0883 15.0016 15.0045 15.0016H16.6706C17.5868 15.0016 18.3363 15.7511 18.3363 16.6667V18.3323C18.3363 19.2479 17.5868 19.9974 16.6706 19.9974ZM15.0045 16.6667V18.3323H16.6706V16.6667H15.0045Z" fill="black"/>
</g>
<g filter="url(#filter7_d_29_1110)">
<path d="M22.5012 19.9974H20.8356C19.9194 19.9974 19.1694 19.2479 19.1694 18.3323V16.6667C19.1694 15.7511 19.9194 15.0016 20.8356 15.0016H22.5012C23.4174 15.0016 24.1674 15.7511 24.1674 16.6667V18.3323C24.1674 19.2479 23.4174 19.9974 22.5012 19.9974ZM20.8356 16.6667V18.3323H22.5012V16.6667H20.8356Z" fill="black"/>
</g>
<g filter="url(#filter8_d_29_1110)">
<path d="M28.3318 19.9974H26.6656C25.7495 19.9974 25 19.2479 25 18.3323V16.6667C25 15.7511 25.7495 15.0016 26.6656 15.0016H28.3318C29.2479 15.0016 29.9974 15.7511 29.9974 16.6667V18.3323C29.9974 19.2479 29.2479 19.9974 28.3318 19.9974ZM26.6656 16.6667V18.3323H28.3318V16.6667H26.6656Z" fill="black"/>
</g>
<g filter="url(#filter9_d_29_1110)">
<path d="M16.6706 25.8266H15.0045C14.0883 25.8266 13.3389 25.0771 13.3389 24.1609V22.4958C13.3389 21.5797 14.0883 20.8302 15.0045 20.8302H16.6706C17.5868 20.8302 18.3363 21.5797 18.3363 22.4958V24.1609C18.3363 25.0771 17.5868 25.8266 16.6706 25.8266ZM15.0045 22.4958V24.1609H16.6706V22.4958H15.0045Z" fill="black"/>
</g>
<g filter="url(#filter10_d_29_1110)">
<path d="M22.5012 25.8266H20.8356C19.9194 25.8266 19.1694 25.0771 19.1694 24.1609V22.4958C19.1694 21.5797 19.9194 20.8302 20.8356 20.8302H22.5012C23.4174 20.8302 24.1674 21.5797 24.1674 22.4958V24.1609C24.1674 25.0771 23.4174 25.8266 22.5012 25.8266ZM20.8356 22.4958V24.1609H22.5012V22.4958H20.8356Z" fill="black"/>
</g>
<g filter="url(#filter11_d_29_1110)">
<path d="M27.5823 25.8266H26.6656C25.7495 25.8266 25 25.0771 25 24.1609V22.4958C25 21.5797 25.7495 20.8302 26.6656 20.8302H28.0818V22.4958H26.6656V24.1609H27.5823V25.8266Z" fill="black"/>
</g>
<g filter="url(#filter12_d_29_1110)">
<path d="M17.5034 8.34009H25.8326V10.0052H17.5034V8.34009Z" fill="black"/>
</g>
<g filter="url(#filter13_d_29_1110)">
<path d="M33.3292 13.3359H10.0073V10.838C10.0073 9.42238 11.0901 8.34009 12.5063 8.34009H15.0047V10.0052H12.5063C12.0063 10.0052 11.6729 10.3385 11.6729 10.838V11.6708H31.6636V10.838C31.6636 10.3385 31.3302 10.0052 30.8308 10.0052H28.3318V8.34009H30.8308C32.2464 8.34009 33.3292 9.42238 33.3292 10.838V13.3359Z" fill="black"/>
</g>
<g filter="url(#filter14_d_29_1110)">
<path d="M16.6708 10.838H15.8375C14.9214 10.838 14.1719 10.0885 14.1719 9.1724V7.5073C14.1719 6.59115 14.9214 5.84167 15.8375 5.84167H16.6708C17.587 5.84167 18.3365 6.59115 18.3365 7.5073V9.1724C18.3365 10.0885 17.587 10.838 16.6708 10.838ZM15.8375 7.5073V9.1724H16.6708V7.5073H15.8375Z" fill="black"/>
</g>
<g filter="url(#filter15_d_29_1110)">
<path d="M27.499 10.838H26.6656C25.7495 10.838 25 10.0885 25 9.1724V7.5073C25 6.59115 25.7495 5.84167 26.6656 5.84167H27.499C28.4151 5.84167 29.1646 6.59115 29.1646 7.5073V9.1724C29.1646 10.0885 28.4151 10.838 27.499 10.838ZM26.6656 7.5073V9.1724H27.499V7.5073H26.6656Z" fill="black"/>
</g>
<g filter="url(#filter16_d_29_1110)">
<path d="M33.3291 30.8224C29.6645 30.8224 26.6655 27.825 26.6655 24.161C26.6655 20.4974 29.6645 17.4995 33.3291 17.4995C36.9942 17.4995 39.9926 20.4974 39.9926 24.161C39.9926 27.825 36.9942 30.8224 33.3291 30.8224ZM33.3291 19.1651C30.5806 19.1651 28.3317 21.4131 28.3317 24.161C28.3317 26.9089 30.5806 29.1573 33.3291 29.1573C36.078 29.1573 38.327 26.9089 38.327 24.161C38.327 21.4131 36.078 19.1651 33.3291 19.1651Z" fill="black"/>
</g>
<g filter="url(#filter17_d_29_1110)">
<path d="M35.745 24.9937H33.3294C32.9132 24.9937 32.4966 24.6604 32.4966 24.1609V20.4141C32.4966 19.9146 32.8299 19.5812 33.3294 19.5812C33.7461 19.5812 34.1627 19.9146 34.1627 20.4141V23.3281H35.745C36.245 23.3281 36.5778 23.6614 36.5778 24.1609C36.5778 24.6604 36.245 24.9937 35.745 24.9937Z" fill="black"/>
</g>
</g>
<defs>
<filter id="filter0_d_29_1110" x="-3.98779" y="3.34375" width="57.9761" height="37.9771" filterUnits="userSpaceOnUse" color-interpolation-filters="sRGB">
<feFlood flood-opacity="0" result="BackgroundImageFix"/>
<feColorMatrix in="SourceAlpha" type="matrix" values="0 0 0 0 0 0 0 0 0 0 0 0 0 0 0 0 0 0 127 0" result="hardAlpha"/>
<feOffset dy="4"/>
<feGaussianBlur stdDeviation="2"/>
<feComposite in2="hardAlpha" operator="out"/>
<feColorMatrix type="matrix" values="0 0 0 0 0 0 0 0 0 0 0 0 0 0 0 0 0 0 0.25 0"/>
<feBlend mode="normal" in2="BackgroundImageFix" result="effect1_dropShadow_29_1110"/>
<feBlend mode="normal" in="SourceGraphic" in2="effect1_dropShadow_29_1110" result="shape"/>
</filter>
<filter id="filter1_d_29_1110" x="8.75586" y="36.6516" width="32.4053" height="17.9922" filterUnits="userSpaceOnUse" color-interpolation-filters="sRGB">
<feFlood flood-opacity="0" result="BackgroundImageFix"/>
<feColorMatrix in="SourceAlpha" type="matrix" values="0 0 0 0 0 0 0 0 0 0 0 0 0 0 0 0 0 0 127 0" result="hardAlpha"/>
<feOffset dy="4"/>
<feGaussianBlur stdDeviation="2"/>
<feComposite in2="hardAlpha" operator="out"/>
<feColorMatrix type="matrix" values="0 0 0 0 0 0 0 0 0 0 0 0 0 0 0 0 0 0 0.25 0"/>
<feBlend mode="normal" in2="BackgroundImageFix" result="effect1_dropShadow_29_1110"/>
<feBlend mode="normal" in="SourceGraphic" in2="effect1_dropShadow_29_1110" result="shape"/>
</filter>
<filter id="filter2_d_29_1110" x="6.00732" y="44.9781" width="37.9854" height="9.66565" filterUnits="userSpaceOnUse" color-interpolation-filters="sRGB">
<feFlood flood-opacity="0" result="BackgroundImageFix"/>
<feColorMatrix in="SourceAlpha" type="matrix" values="0 0 0 0 0 0 0 0 0 0 0 0 0 0 0 0 0 0 127 0" result="hardAlpha"/>
<feOffset dy="4"/>
<feGaussianBlur stdDeviation="2"/>
<feComposite in2="hardAlpha" operator="out"/>
<feColorMatrix type="matrix" values="0 0 0 0 0 0 0 0 0 0 0 0 0 0 0 0 0 0 0.25 0"/>
<feBlend mode="normal" in2="BackgroundImageFix" result="effect1_dropShadow_29_1110"/>
<feBlend mode="normal" in="SourceGraphic" in2="effect1_dropShadow_29_1110" result="shape"/>
</filter>
<filter id="filter3_d_29_1110" x="-3.98779" y="31.6552" width="57.9761" height="14.6614" filterUnits="userSpaceOnUse" color-interpolation-filters="sRGB">
<feFlood flood-opacity="0" result="BackgroundImageFix"/>
<feColorMatrix in="SourceAlpha" type="matrix" values="0 0 0 0 0 0 0 0 0 0 0 0 0 0 0 0 0 0 127 0" result="hardAlpha"/>
<feOffset dy="4"/>
<feGaussianBlur stdDeviation="2"/>
<feComposite in2="hardAlpha" operator="out"/>
<feColorMatrix type="matrix" values="0 0 0 0 0 0 0 0 0 0 0 0 0 0 0 0 0 0 0.25 0"/>
<feBlend mode="normal" in2="BackgroundImageFix" result="effect1_dropShadow_29_1110"/>
<feBlend mode="normal" in="SourceGraphic" in2="effect1_dropShadow_29_1110" result="shape"/>
</filter>
<filter id="filter4_d_29_1110" x="20.167" y="34.1531" width="9.66553" height="9.66565" filterUnits="userSpaceOnUse" color-interpolation-filters="sRGB">
<feFlood flood-opacity="0" result="BackgroundImageFix"/>
<feColorMatrix in="SourceAlpha" type="matrix" values="0 0 0 0 0 0 0 0 0 0 0 0 0 0 0 0 0 0 127 0" result="hardAlpha"/>
<feOffset dy="4"/>
<feGaussianBlur stdDeviation="2"/>
<feComposite in2="hardAlpha" operator="out"/>
<feColorMatrix type="matrix" values="0 0 0 0 0 0 0 0 0 0 0 0 0 0 0 0 0 0 0.25 0"/>
<feBlend mode="normal" in2="BackgroundImageFix" result="effect1_dropShadow_29_1110"/>
<feBlend mode="normal" in="SourceGraphic" in2="effect1_dropShadow_29_1110" result="shape"/>
</filter>
<filter id="filter5_d_29_1110" x="6.00732" y="11.6708" width="31.3218" height="25.4865" filterUnits="userSpaceOnUse" color-interpolation-filters="sRGB">
<feFlood flood-opacity="0" result="BackgroundImageFix"/>
<feColorMatrix in="SourceAlpha" type="matrix" values="0 0 0 0 0 0 0 0 0 0 0 0 0 0 0 0 0 0 127 0" result="hardAlpha"/>
<feOffset dy="4"/>
<feGaussianBlur stdDeviation="2"/>
<feComposite in2="hardAlpha" operator="out"/>
<feColorMatrix type="matrix" values="0 0 0 0 0 0 0 0 0 0 0 0 0 0 0 0 0 0 0.25 0"/>
<feBlend mode="normal" in2="BackgroundImageFix" result="effect1_dropShadow_29_1110"/>
<feBlend mode="normal" in="SourceGraphic" in2="effect1_dropShadow_29_1110" result="shape"/>
</filter>
<filter id="filter6_d_29_1110" x="9.33887" y="15.0016" width="12.9976" height="12.9958" filterUnits="userSpaceOnUse" color-interpolation-filters="sRGB">
<feFlood flood-opacity="0" result="BackgroundImageFix"/>
<feColorMatrix in="SourceAlpha" type="matrix" values="0 0 0 0 0 0 0 0 0 0 0 0 0 0 0 0 0 0 127 0" result="hardAlpha"/>
<feOffset dy="4"/>
<feGaussianBlur stdDeviation="2"/>
<feComposite in2="hardAlpha" operator="out"/>
<feColorMatrix type="matrix" values="0 0 0 0 0 0 0 0 0 0 0 0 0 0 0 0 0 0 0.25 0"/>
<feBlend mode="normal" in2="BackgroundImageFix" result="effect1_dropShadow_29_1110"/>
<feBlend mode="normal" in="SourceGraphic" in2="effect1_dropShadow_29_1110" result="shape"/>
</filter>
<filter id="filter7_d_29_1110" x="15.1694" y="15.0016" width="12.998" height="12.9958" filterUnits="userSpaceOnUse" color-interpolation-filters="sRGB">
<feFlood flood-opacity="0" result="BackgroundImageFix"/>
<feColorMatrix in="SourceAlpha" type="matrix" values="0 0 0 0 0 0 0 0 0 0 0 0 0 0 0 0 0 0 127 0" result="hardAlpha"/>
<feOffset dy="4"/>
<feGaussianBlur stdDeviation="2"/>
<feComposite in2="hardAlpha" operator="out"/>
<feColorMatrix type="matrix" values="0 0 0 0 0 0 0 0 0 0 0 0 0 0 0 0 0 0 0.25 0"/>
<feBlend mode="normal" in2="BackgroundImageFix" result="effect1_dropShadow_29_1110"/>
<feBlend mode="normal" in="SourceGraphic" in2="effect1_dropShadow_29_1110" result="shape"/>
</filter>
<filter id="filter8_d_29_1110" x="21" y="15.0016" width="12.9976" height="12.9958" filterUnits="userSpaceOnUse" color-interpolation-filters="sRGB">
<feFlood flood-opacity="0" result="BackgroundImageFix"/>
<feColorMatrix in="SourceAlpha" type="matrix" values="0 0 0 0 0 0 0 0 0 0 0 0 0 0 0 0 0 0 127 0" result="hardAlpha"/>
<feOffset dy="4"/>
<feGaussianBlur stdDeviation="2"/>
<feComposite in2="hardAlpha" operator="out"/>
<feColorMatrix type="matrix" values="0 0 0 0 0 0 0 0 0 0 0 0 0 0 0 0 0 0 0.25 0"/>
<feBlend mode="normal" in2="BackgroundImageFix" result="effect1_dropShadow_29_1110"/>
<feBlend mode="normal" in="SourceGraphic" in2="effect1_dropShadow_29_1110" result="shape"/>
</filter>
<filter id="filter9_d_29_1110" x="9.33887" y="20.8302" width="12.9976" height="12.9963" filterUnits="userSpaceOnUse" color-interpolation-filters="sRGB">
<feFlood flood-opacity="0" result="BackgroundImageFix"/>
<feColorMatrix in="SourceAlpha" type="matrix" values="0 0 0 0 0 0 0 0 0 0 0 0 0 0 0 0 0 0 127 0" result="hardAlpha"/>
<feOffset dy="4"/>
<feGaussianBlur stdDeviation="2"/>
<feComposite in2="hardAlpha" operator="out"/>
<feColorMatrix type="matrix" values="0 0 0 0 0 0 0 0 0 0 0 0 0 0 0 0 0 0 0.25 0"/>
<feBlend mode="normal" in2="BackgroundImageFix" result="effect1_dropShadow_29_1110"/>
<feBlend mode="normal" in="SourceGraphic" in2="effect1_dropShadow_29_1110" result="shape"/>
</filter>
<filter id="filter10_d_29_1110" x="15.1694" y="20.8302" width="12.998" height="12.9963" filterUnits="userSpaceOnUse" color-interpolation-filters="sRGB">
<feFlood flood-opacity="0" result="BackgroundImageFix"/>
<feColorMatrix in="SourceAlpha" type="matrix" values="0 0 0 0 0 0 0 0 0 0 0 0 0 0 0 0 0 0 127 0" result="hardAlpha"/>
<feOffset dy="4"/>
<feGaussianBlur stdDeviation="2"/>
<feComposite in2="hardAlpha" operator="out"/>
<feColorMatrix type="matrix" values="0 0 0 0 0 0 0 0 0 0 0 0 0 0 0 0 0 0 0.25 0"/>
<feBlend mode="normal" in2="BackgroundImageFix" result="effect1_dropShadow_29_1110"/>
<feBlend mode="normal" in="SourceGraphic" in2="effect1_dropShadow_29_1110" result="shape"/>
</filter>
<filter id="filter11_d_29_1110" x="21" y="20.8302" width="11.0815" height="12.9963" filterUnits="userSpaceOnUse" color-interpolation-filters="sRGB">
<feFlood flood-opacity="0" result="BackgroundImageFix"/>
<feColorMatrix in="SourceAlpha" type="matrix" values="0 0 0 0 0 0 0 0 0 0 0 0 0 0 0 0 0 0 127 0" result="hardAlpha"/>
<feOffset dy="4"/>
<feGaussianBlur stdDeviation="2"/>
<feComposite in2="hardAlpha" operator="out"/>
<feColorMatrix type="matrix" values="0 0 0 0 0 0 0 0 0 0 0 0 0 0 0 0 0 0 0.25 0"/>
<feBlend mode="normal" in2="BackgroundImageFix" result="effect1_dropShadow_29_1110"/>
<feBlend mode="normal" in="SourceGraphic" in2="effect1_dropShadow_29_1110" result="shape"/>
</filter>
<filter id="filter12_d_29_1110" x="13.5034" y="8.34009" width="16.3291" height="9.6651" filterUnits="userSpaceOnUse" color-interpolation-filters="sRGB">
<feFlood flood-opacity="0" result="BackgroundImageFix"/>
<feColorMatrix in="SourceAlpha" type="matrix" values="0 0 0 0 0 0 0 0 0 0 0 0 0 0 0 0 0 0 127 0" result="hardAlpha"/>
<feOffset dy="4"/>
<feGaussianBlur stdDeviation="2"/>
<feComposite in2="hardAlpha" operator="out"/>
<feColorMatrix type="matrix" values="0 0 0 0 0 0 0 0 0 0 0 0 0 0 0 0 0 0 0.25 0"/>
<feBlend mode="normal" in2="BackgroundImageFix" result="effect1_dropShadow_29_1110"/>
<feBlend mode="normal" in="SourceGraphic" in2="effect1_dropShadow_29_1110" result="shape"/>
</filter>
<filter id="filter13_d_29_1110" x="6.00732" y="8.34009" width="31.3218" height="12.9958" filterUnits="userSpaceOnUse" color-interpolation-filters="sRGB">
<feFlood flood-opacity="0" result="BackgroundImageFix"/>
<feColorMatrix in="SourceAlpha" type="matrix" values="0 0 0 0 0 0 0 0 0 0 0 0 0 0 0 0 0 0 127 0" result="hardAlpha"/>
<feOffset dy="4"/>
<feGaussianBlur stdDeviation="2"/>
<feComposite in2="hardAlpha" operator="out"/>
<feColorMatrix type="matrix" values="0 0 0 0 0 0 0 0 0 0 0 0 0 0 0 0 0 0 0.25 0"/>
<feBlend mode="normal" in2="BackgroundImageFix" result="effect1_dropShadow_29_1110"/>
<feBlend mode="normal" in="SourceGraphic" in2="effect1_dropShadow_29_1110" result="shape"/>
</filter>
<filter id="filter14_d_29_1110" x="10.1719" y="5.84167" width="12.1646" height="12.9963" filterUnits="userSpaceOnUse" color-interpolation-filters="sRGB">
<feFlood flood-opacity="0" result="BackgroundImageFix"/>
<feColorMatrix in="SourceAlpha" type="matrix" values="0 0 0 0 0 0 0 0 0 0 0 0 0 0 0 0 0 0 127 0" result="hardAlpha"/>
<feOffset dy="4"/>
<feGaussianBlur stdDeviation="2"/>
<feComposite in2="hardAlpha" operator="out"/>
<feColorMatrix type="matrix" values="0 0 0 0 0 0 0 0 0 0 0 0 0 0 0 0 0 0 0.25 0"/>
<feBlend mode="normal" in2="BackgroundImageFix" result="effect1_dropShadow_29_1110"/>
<feBlend mode="normal" in="SourceGraphic" in2="effect1_dropShadow_29_1110" result="shape"/>
</filter>
<filter id="filter15_d_29_1110" x="21" y="5.84167" width="12.1646" height="12.9963" filterUnits="userSpaceOnUse" color-interpolation-filters="sRGB">
<feFlood flood-opacity="0" result="BackgroundImageFix"/>
<feColorMatrix in="SourceAlpha" type="matrix" values="0 0 0 0 0 0 0 0 0 0 0 0 0 0 0 0 0 0 127 0" result="hardAlpha"/>
<feOffset dy="4"/>
<feGaussianBlur stdDeviation="2"/>
<feComposite in2="hardAlpha" operator="out"/>
<feColorMatrix type="matrix" values="0 0 0 0 0 0 0 0 0 0 0 0 0 0 0 0 0 0 0.25 0"/>
<feBlend mode="normal" in2="BackgroundImageFix" result="effect1_dropShadow_29_1110"/>
<feBlend mode="normal" in="SourceGraphic" in2="effect1_dropShadow_29_1110" result="shape"/>
</filter>
<filter id="filter16_d_29_1110" x="22.6655" y="17.4995" width="21.3271" height="21.3229" filterUnits="userSpaceOnUse" color-interpolation-filters="sRGB">
<feFlood flood-opacity="0" result="BackgroundImageFix"/>
<feColorMatrix in="SourceAlpha" type="matrix" values="0 0 0 0 0 0 0 0 0 0 0 0 0 0 0 0 0 0 127 0" result="hardAlpha"/>
<feOffset dy="4"/>
<feGaussianBlur stdDeviation="2"/>
<feComposite in2="hardAlpha" operator="out"/>
<feColorMatrix type="matrix" values="0 0 0 0 0 0 0 0 0 0 0 0 0 0 0 0 0 0 0.25 0"/>
<feBlend mode="normal" in2="BackgroundImageFix" result="effect1_dropShadow_29_1110"/>
<feBlend mode="normal" in="SourceGraphic" in2="effect1_dropShadow_29_1110" result="shape"/>
</filter>
<filter id="filter17_d_29_1110" x="28.4966" y="19.5812" width="12.0811" height="13.4125" filterUnits="userSpaceOnUse" color-interpolation-filters="sRGB">
<feFlood flood-opacity="0" result="BackgroundImageFix"/>
<feColorMatrix in="SourceAlpha" type="matrix" values="0 0 0 0 0 0 0 0 0 0 0 0 0 0 0 0 0 0 127 0" result="hardAlpha"/>
<feOffset dy="4"/>
<feGaussianBlur stdDeviation="2"/>
<feComposite in2="hardAlpha" operator="out"/>
<feColorMatrix type="matrix" values="0 0 0 0 0 0 0 0 0 0 0 0 0 0 0 0 0 0 0.25 0"/>
<feBlend mode="normal" in2="BackgroundImageFix" result="effect1_dropShadow_29_1110"/>
<feBlend mode="normal" in="SourceGraphic" in2="effect1_dropShadow_29_1110" result="shape"/>
</filter>
<clipPath id="clip0_29_1110">
<rect width="50" height="50" fill="white"/>
</clipPath>
</defs>
</svg>
