<svg width="24" height="24" viewBox="0 0 24 24" fill="none" xmlns="http://www.w3.org/2000/svg">
<g opacity="0.5">
<path d="M11.579 12.056C14.2178 12.056 16.357 9.91682 16.357 7.278C16.357 4.63918 14.2178 2.5 11.579 2.5C8.94021 2.5 6.80103 4.63918 6.80103 7.278C6.80103 9.91682 8.94021 12.056 11.579 12.056Z" stroke="#061428" stroke-width="1.5" stroke-linecap="round" stroke-linejoin="round"/>
<path fill-rule="evenodd" clip-rule="evenodd" d="M4.00001 18.701C3.99886 18.3652 4.07409 18.0335 4.22001 17.731C4.67701 16.816 5.96801 16.331 7.03901 16.111C7.81128 15.946 8.59422 15.8358 9.38201 15.781C10.8409 15.6528 12.3082 15.6528 13.767 15.781C14.554 15.837 15.337 15.947 16.11 16.111C17.18 16.331 18.471 16.77 18.93 17.731C19.0749 18.0356 19.1501 18.3687 19.1501 18.706C19.1501 19.0433 19.0749 19.3764 18.93 19.681C18.471 20.641 17.18 21.081 16.11 21.291C15.338 21.463 14.555 21.577 13.767 21.631C12.579 21.731 11.387 21.749 10.197 21.685C9.92201 21.685 9.65701 21.685 9.38201 21.63C8.59653 21.5771 7.81625 21.4641 7.04801 21.292C5.96801 21.082 4.68701 20.642 4.22001 19.681C4.0746 19.3744 3.99944 19.0393 4.00001 18.7V18.701Z" stroke="#061428" stroke-width="1.5" stroke-linecap="round" stroke-linejoin="round"/>
</g>
</svg>
