<svg width="24" height="24" viewBox="0 0 24 24" fill="none" xmlns="http://www.w3.org/2000/svg">
<g opacity="0.5">
<path fill-rule="evenodd" clip-rule="evenodd" d="M21.5238 9.75297C21.2141 7.84606 20.2497 6.10663 18.7965 4.8337C17.3432 3.56077 15.4919 2.83387 13.5608 2.77797C13.467 2.77423 13.3733 2.78904 13.2852 2.82156C13.197 2.85408 13.1162 2.90367 13.0473 2.96749C12.9783 3.03131 12.9227 3.1081 12.8835 3.19347C12.8443 3.27884 12.8223 3.3711 12.8188 3.46497V3.52897L13.2678 10.238C13.2978 10.69 13.6848 11.033 14.1378 11.007L20.8648 10.558C20.9587 10.551 21.0503 10.5256 21.1343 10.4831C21.2183 10.4407 21.293 10.382 21.3543 10.3105C21.4155 10.2391 21.462 10.1562 21.4911 10.0667C21.5202 9.97717 21.5314 9.88279 21.5238 9.78897V9.75297V9.75297Z" stroke="#061428" stroke-width="1.5" stroke-linecap="round" stroke-linejoin="round"/>
<path d="M8.90188 6.76896C9.10931 6.72105 9.32695 6.74696 9.51733 6.84224C9.70771 6.93752 9.85891 7.0962 9.94488 7.29096C9.99126 7.38546 10.0191 7.48798 10.0269 7.59296C10.1189 8.89296 10.3109 11.739 10.4209 13.277C10.4301 13.4141 10.4664 13.5481 10.5276 13.6712C10.5889 13.7943 10.6738 13.9041 10.7776 13.9943C10.8815 14.0844 11.0021 14.1532 11.1325 14.1965C11.263 14.2399 11.4008 14.257 11.5379 14.247L17.1849 13.899C17.3097 13.8914 17.4347 13.9096 17.5522 13.9523C17.6697 13.9949 17.7772 14.0612 17.8681 14.1471C17.959 14.2329 18.0313 14.3364 18.0807 14.4513C18.13 14.5662 18.1552 14.6899 18.1549 14.815C18.0431 16.4751 17.3965 18.0543 16.3118 19.316C15.2272 20.5777 13.763 21.4541 12.1385 21.8138C10.514 22.1735 8.81663 21.9972 7.30074 21.3112C5.78485 20.6253 4.53201 19.4667 3.72988 18.009C3.23837 17.1472 2.92708 16.1946 2.81488 15.209C2.76686 14.9061 2.74844 14.5994 2.75988 14.293C2.76455 12.5259 3.37629 10.8141 4.49264 9.44438C5.60898 8.07462 7.16212 7.13007 8.89188 6.76896" stroke="#061428" stroke-width="1.5" stroke-linecap="round" stroke-linejoin="round"/>
</g>
</svg>
