<svg width="22" height="22" viewBox="0 0 22 22" fill="none" xmlns="http://www.w3.org/2000/svg">
<path d="M9.40824 18.8155C11.4957 18.8151 13.5229 18.1163 15.1673 16.8304L20.3371 22L22 20.3372L16.8302 15.1676C18.1167 13.5232 18.816 11.4956 18.8165 9.40774C18.8165 4.22055 14.5957 0 9.40824 0C4.22077 0 0 4.22055 0 9.40774C0 14.5949 4.22077 18.8155 9.40824 18.8155ZM9.40824 2.35193C13.2997 2.35193 16.4644 5.51646 16.4644 9.40774C16.4644 13.299 13.2997 16.4635 9.40824 16.4635C5.51676 16.4635 2.35206 13.299 2.35206 9.40774C2.35206 5.51646 5.51676 2.35193 9.40824 2.35193Z" fill="black"/>
<path d="M11.0688 7.74492C11.5145 8.19179 11.7603 8.78212 11.7603 9.40774H14.1124C14.1134 8.78968 13.9919 8.17755 13.7549 7.60673C13.518 7.0359 13.1702 6.51771 12.7317 6.0821C10.9512 4.30404 7.86411 4.30404 6.08478 6.0821L7.74534 7.74727C8.63912 6.85589 10.1797 6.85824 11.0688 7.74492Z" fill="black"/>
</svg>
