<svg width="42" height="49" viewBox="0 0 42 49" fill="none" xmlns="http://www.w3.org/2000/svg">
<g filter="url(#filter0_d_80_703)">
<path d="M27.3098 7.36076C25.1906 6.96289 23.0574 6.75165 20.9093 6.72754C18.7621 6.75213 16.6293 6.96289 14.511 7.36076C9.01803 8.45455 6.23291 10.9392 6.23291 14.7453C6.23291 17.9235 7.34262 19.4749 8.54237 20.6787C8.56913 20.7057 8.62519 20.7616 8.67743 20.8152C8.6787 20.8431 8.67912 20.8755 8.67912 20.9126V37.2563C8.67912 37.3571 8.6838 37.4579 8.69271 37.5582C8.70121 37.659 8.71437 37.7583 8.73179 37.8577C8.7492 37.9566 8.77086 38.0545 8.79676 38.1509C8.82267 38.2474 8.85282 38.3424 8.8868 38.4355C8.9212 38.529 8.95899 38.6202 9.00104 38.7089C9.04308 38.7981 9.08852 38.8844 9.13821 38.9684C9.18748 39.0523 9.24056 39.1333 9.29705 39.2114C9.35353 39.2896 9.41341 39.3643 9.47627 39.4357C9.53912 39.5071 9.60495 39.5746 9.67375 39.6387C9.74255 39.7029 9.8139 39.7631 9.88779 39.8191C9.96169 39.875 10.0381 39.9271 10.1167 39.9749C10.1948 40.0221 10.2751 40.0655 10.3575 40.1041C10.4399 40.1427 10.5236 40.1769 10.6085 40.2064C10.6939 40.2358 10.7801 40.2604 10.8671 40.2801C10.9542 40.2999 11.0421 40.3149 11.1309 40.3245C11.2192 40.3346 11.3084 40.3399 11.3971 40.3399H30.4232C30.512 40.3399 30.6012 40.3346 30.6895 40.3245C30.7783 40.3149 30.8662 40.2999 30.9533 40.2801C31.0403 40.2604 31.1265 40.2358 31.2119 40.2064C31.2968 40.1769 31.3805 40.1427 31.4629 40.1041C31.5453 40.0655 31.6255 40.0221 31.7037 39.9749C31.7823 39.9271 31.8587 39.875 31.9326 39.8191C32.0065 39.7631 32.0778 39.7029 32.1466 39.6387C32.2154 39.5746 32.2813 39.5071 32.3441 39.4357C32.407 39.3643 32.4669 39.2896 32.5233 39.2114C32.5798 39.1333 32.6329 39.0523 32.6822 38.9684C32.7319 38.8844 32.7773 38.7981 32.8193 38.7089C32.8614 38.6202 32.8992 38.529 32.9336 38.4355C32.9676 38.3424 32.9977 38.2474 33.0236 38.1509C33.0495 38.0545 33.0712 37.9566 33.0886 37.8577C33.106 37.7583 33.1192 37.659 33.1277 37.5582C33.1366 37.4579 33.1413 37.3571 33.1413 37.2563V20.9126C33.1413 20.8755 33.1417 20.8431 33.143 20.8152C33.1952 20.7616 33.2513 20.7052 33.2789 20.6782C34.4778 19.4749 35.5875 17.9235 35.5875 14.7453C35.5875 10.9392 32.8024 8.45504 27.3098 7.36076ZM32.559 19.7537C32.4401 19.867 32.3267 19.9876 32.2197 20.1149C32.1607 20.1906 32.1207 20.2774 32.0995 20.3753C32.0659 20.5523 32.0507 20.7313 32.0541 20.9126V37.2563C32.0541 37.3778 32.0434 37.4979 32.0222 37.617C32.0014 37.7362 31.9704 37.8519 31.9296 37.9638C31.8884 38.0762 31.8383 38.1827 31.7784 38.2835C31.719 38.3843 31.6514 38.4779 31.5759 38.5637C31.5003 38.6496 31.4179 38.7263 31.3287 38.7938C31.2399 38.8613 31.1461 38.9187 31.0471 38.965C30.9482 39.0118 30.8462 39.0465 30.7413 39.0706C30.6364 39.0942 30.5303 39.1063 30.4232 39.1063H11.3971C11.2901 39.1063 11.1839 39.0942 11.079 39.0706C10.9741 39.0465 10.8722 39.0118 10.7733 38.965C10.6743 38.9187 10.5805 38.8613 10.4917 38.7938C10.4025 38.7263 10.3201 38.6496 10.2445 38.5637C10.1689 38.4779 10.1014 38.3843 10.042 38.2835C9.98207 38.1827 9.93196 38.0762 9.89119 37.9638C9.84999 37.8519 9.81899 37.7362 9.79818 37.617C9.77695 37.4979 9.76633 37.3778 9.76633 37.2563V20.9126C9.76973 20.7313 9.75444 20.5523 9.72089 20.3753C9.69965 20.2774 9.65973 20.1906 9.6007 20.1149C9.49368 19.9876 9.38071 19.8675 9.26222 19.7542C8.27949 18.7684 7.32012 17.5695 7.32012 14.7453C7.32012 11.6265 9.80285 9.55076 14.6987 8.5756C16.755 8.1893 18.8254 7.98482 20.9093 7.96071C22.9941 7.98482 25.0649 8.1893 27.1221 8.5756C32.018 9.55076 34.5003 11.6265 34.5003 14.7453C34.5003 17.5695 33.5409 18.7684 32.559 19.7537ZM26.8469 10.0861C24.8823 9.71907 22.905 9.52471 20.914 9.50301C20.9106 9.50301 20.9098 9.50301 20.9072 9.50301C18.9163 9.52471 16.9381 9.71907 14.9735 10.0861C10.7966 10.9108 8.67912 12.4781 8.67912 14.7453C8.67912 17.1108 9.50132 17.936 10.1626 18.5991C10.7215 19.16 11.1253 19.5651 11.1253 20.9126V36.3308C11.1253 36.4118 11.1326 36.4924 11.1466 36.5715C11.1606 36.6511 11.181 36.7282 11.2086 36.803C11.2358 36.8777 11.2693 36.9486 11.3088 37.0161C11.3487 37.0832 11.3937 37.1454 11.4443 37.2028C11.4944 37.2602 11.5496 37.3113 11.6086 37.3561C11.6681 37.4015 11.7309 37.4391 11.7968 37.4704C11.8626 37.5013 11.9305 37.5249 12.0006 37.5408C12.0707 37.5563 12.1412 37.5645 12.2125 37.5645H29.6078C29.6792 37.5645 29.7497 37.5563 29.8198 37.5408C29.8898 37.5249 29.9578 37.5013 30.0236 37.4704C30.0894 37.4391 30.1523 37.4015 30.2118 37.3561C30.2708 37.3113 30.326 37.2602 30.3761 37.2028C30.4266 37.1454 30.4717 37.0832 30.5116 37.0161C30.5511 36.9486 30.5846 36.8777 30.6118 36.803C30.6394 36.7282 30.6598 36.6511 30.6738 36.5715C30.6878 36.4924 30.695 36.4118 30.695 36.3308V20.9126C30.695 19.5651 31.0989 19.16 31.6578 18.5991C32.3191 17.936 33.1413 17.1108 33.1413 14.7453C33.1413 12.4781 31.0238 10.9108 26.8469 10.0861ZM30.938 17.6751C30.3145 18.3006 29.6078 19.0091 29.6078 20.9126V36.3308H12.2125V20.9126C12.2125 19.0091 11.5059 18.3006 10.8824 17.6751C10.2836 17.0742 9.76633 16.5553 9.76633 14.7453C9.76633 12.6778 13.1379 11.7017 15.148 11.3038C17.0561 10.9503 18.977 10.7613 20.9106 10.7362C22.8438 10.7613 24.7643 10.9503 26.6724 11.3038C28.6824 11.7017 32.0541 12.6778 32.0541 14.7453C32.0541 16.5553 31.5368 17.0742 30.938 17.6751ZM14.9306 27.6967V32.014C14.9306 32.0545 14.9272 32.0945 14.9199 32.1341C14.9131 32.1741 14.903 32.2122 14.8894 32.2498C14.8753 32.2875 14.8588 32.3227 14.8388 32.3564C14.8193 32.3902 14.7968 32.4215 14.7713 32.45C14.7462 32.4784 14.7186 32.504 14.6889 32.5267C14.6592 32.5493 14.6282 32.5681 14.5951 32.5836C14.5619 32.599 14.528 32.6111 14.4931 32.6188C14.4579 32.6265 14.4226 32.6304 14.387 32.6304C14.3513 32.6304 14.316 32.6265 14.2808 32.6188C14.246 32.6111 14.212 32.599 14.1789 32.5836C14.1462 32.5681 14.1147 32.5493 14.085 32.5267C14.0553 32.504 14.0277 32.4784 14.0026 32.45C13.9776 32.4215 13.9546 32.3902 13.9351 32.3564C13.9151 32.3227 13.8986 32.2875 13.8845 32.2498C13.871 32.2122 13.8608 32.1741 13.854 32.1341C13.8468 32.0945 13.8434 32.0545 13.8434 32.014V27.6967C13.8434 27.6562 13.8468 27.6162 13.854 27.5761C13.8608 27.5366 13.871 27.498 13.8845 27.4609C13.8986 27.4233 13.9151 27.3876 13.9351 27.3538C13.9546 27.3205 13.9776 27.2892 14.0026 27.2607C14.0277 27.2318 14.0553 27.2062 14.085 27.1841C14.1147 27.1614 14.1462 27.1426 14.1789 27.1267C14.212 27.1112 14.246 27.0997 14.2808 27.0919C14.316 27.0837 14.3513 27.0799 14.387 27.0799C14.4226 27.0799 14.4579 27.0837 14.4931 27.0919C14.528 27.0997 14.5619 27.1112 14.5951 27.1267C14.6282 27.1426 14.6592 27.1614 14.6889 27.1841C14.7186 27.2062 14.7462 27.2318 14.7713 27.2607C14.7968 27.2892 14.8193 27.3205 14.8388 27.3538C14.8588 27.3876 14.8753 27.4233 14.8894 27.4609C14.903 27.498 14.9131 27.5366 14.9199 27.5761C14.9272 27.6162 14.9306 27.6562 14.9306 27.6967ZM19.0076 18.1371V26.7717C19.0076 26.8122 19.0042 26.8523 18.997 26.8918C18.9902 26.9313 18.98 26.9699 18.9664 27.0075C18.9524 27.0452 18.9358 27.0804 18.9158 27.1141C18.8963 27.1479 18.8738 27.1792 18.8483 27.2077C18.8233 27.2361 18.7957 27.2617 18.7659 27.2844C18.7362 27.307 18.7048 27.3258 18.6721 27.3413C18.639 27.3567 18.605 27.3688 18.5702 27.3765C18.5349 27.3842 18.4997 27.3881 18.464 27.3881C18.4283 27.3881 18.3931 27.3842 18.3578 27.3765C18.323 27.3688 18.289 27.3567 18.2559 27.3413C18.2232 27.3258 18.1918 27.307 18.162 27.2844C18.1323 27.2617 18.1047 27.2361 18.0796 27.2077C18.0542 27.1792 18.0316 27.1479 18.0121 27.1141C17.9921 27.0804 17.9756 27.0452 17.9616 27.0075C17.948 26.9699 17.9378 26.9313 17.931 26.8918C17.9238 26.8523 17.9204 26.8122 17.9204 26.7717V18.1371C17.9204 18.0966 17.9238 18.0566 17.931 18.017C17.9378 17.977 17.948 17.9384 17.9616 17.9013C17.9756 17.8637 17.9921 17.828 18.0121 17.7947C18.0316 17.761 18.0542 17.7296 18.0796 17.7011C18.1047 17.6722 18.1323 17.6467 18.162 17.6245C18.1918 17.6018 18.2232 17.583 18.2559 17.5676C18.289 17.5516 18.323 17.5401 18.3578 17.5324C18.3931 17.5242 18.4283 17.5203 18.464 17.5203C18.4997 17.5203 18.5349 17.5242 18.5702 17.5324C18.605 17.5401 18.639 17.5516 18.6721 17.5676C18.7048 17.583 18.7362 17.6018 18.7659 17.6245C18.7957 17.6467 18.8233 17.6722 18.8483 17.7011C18.8738 17.7296 18.8963 17.761 18.9158 17.7947C18.9358 17.828 18.9524 17.8637 18.9664 17.9013C18.98 17.9384 18.9902 17.977 18.997 18.017C19.0042 18.0566 19.0076 18.0966 19.0076 18.1371ZM22.541 23.0712V32.014C22.541 32.0545 22.5376 32.0945 22.5304 32.1341C22.5236 32.1741 22.5134 32.2122 22.4998 32.2498C22.4858 32.2875 22.4692 32.3227 22.4493 32.3564C22.4297 32.3902 22.4072 32.4215 22.3817 32.45C22.3567 32.4784 22.3291 32.504 22.2994 32.5267C22.2696 32.5493 22.2382 32.5681 22.2055 32.5836C22.1724 32.599 22.1384 32.6111 22.1036 32.6188C22.0683 32.6265 22.0331 32.6304 21.9974 32.6304C21.9617 32.6304 21.9265 32.6265 21.8912 32.6188C21.8564 32.6111 21.8224 32.599 21.7893 32.5836C21.7566 32.5681 21.7252 32.5493 21.6954 32.5267C21.6657 32.504 21.6381 32.4784 21.6131 32.45C21.5876 32.4215 21.5651 32.3902 21.5455 32.3564C21.5256 32.3227 21.509 32.2875 21.495 32.2498C21.4814 32.2122 21.4712 32.1741 21.4644 32.1341C21.4572 32.0945 21.4538 32.0545 21.4538 32.014V23.0712C21.4538 23.0307 21.4572 22.9907 21.4644 22.9507C21.4712 22.9111 21.4814 22.8725 21.495 22.8349C21.509 22.7978 21.5256 22.7621 21.5455 22.7283C21.5651 22.6946 21.5876 22.6637 21.6131 22.6348C21.6381 22.6063 21.6657 22.5808 21.6954 22.5581C21.7252 22.5359 21.7566 22.5166 21.7893 22.5012C21.8224 22.4858 21.8564 22.4742 21.8912 22.466C21.9265 22.4583 21.9617 22.4544 21.9974 22.4544C22.0331 22.4544 22.0683 22.4583 22.1036 22.466C22.1384 22.4742 22.1724 22.4858 22.2055 22.5012C22.2382 22.5166 22.2696 22.5359 22.2994 22.5581C22.3291 22.5808 22.3567 22.6063 22.3817 22.6348C22.4072 22.6637 22.4297 22.6946 22.4493 22.7283C22.4692 22.7621 22.4858 22.7978 22.4998 22.8349C22.5134 22.8725 22.5236 22.9111 22.5304 22.9507C22.5376 22.9907 22.541 23.0307 22.541 23.0712ZM26.3462 21.2208C26.3105 21.2208 26.2753 21.2169 26.24 21.2092C26.2052 21.201 26.1713 21.1894 26.1381 21.174C26.105 21.1586 26.074 21.1393 26.0443 21.1171C26.0145 21.0944 25.9869 21.0689 25.9619 21.0404C25.9364 21.0115 25.9139 20.9806 25.8944 20.9468C25.8744 20.9131 25.8578 20.8774 25.8438 20.8403C25.8302 20.8026 25.82 20.7641 25.8132 20.7245C25.806 20.685 25.8026 20.6445 25.8026 20.6039V15.0535C25.8026 15.013 25.806 14.9729 25.8132 14.9329C25.82 14.8934 25.8302 14.8548 25.8438 14.8176C25.8578 14.78 25.8744 14.7443 25.8944 14.7106C25.9139 14.6773 25.9364 14.646 25.9619 14.6175C25.9869 14.5886 26.0145 14.563 26.0443 14.5408C26.074 14.5182 26.105 14.4993 26.1381 14.4834C26.1713 14.468 26.2052 14.4564 26.24 14.4487C26.2753 14.4405 26.3105 14.4367 26.3462 14.4367C26.3819 14.4367 26.4171 14.4405 26.4524 14.4487C26.4872 14.4564 26.5212 14.468 26.5543 14.4834C26.587 14.4993 26.6184 14.5182 26.6482 14.5408C26.6779 14.563 26.7055 14.5886 26.7306 14.6175C26.7556 14.646 26.7786 14.6773 26.7981 14.7106C26.8181 14.7443 26.8346 14.78 26.8486 14.8176C26.8622 14.8548 26.8724 14.8934 26.8792 14.9329C26.8864 14.9729 26.8898 15.013 26.8898 15.0535V20.6039C26.8898 20.6445 26.8864 20.685 26.8792 20.7245C26.8724 20.7641 26.8622 20.8026 26.8482 20.8403C26.8346 20.8774 26.8181 20.9131 26.7981 20.9468C26.7786 20.9806 26.7556 21.0115 26.7306 21.0404C26.7055 21.0689 26.6779 21.0944 26.6482 21.1171C26.6184 21.1393 26.587 21.1586 26.5543 21.174C26.5212 21.1894 26.4872 21.201 26.4524 21.2092C26.4171 21.2169 26.3819 21.2208 26.3462 21.2208ZM27.1616 27.0799V31.3972C27.1616 31.4377 27.1582 31.4777 27.151 31.5173C27.1442 31.5573 27.134 31.5959 27.1204 31.633C27.1064 31.6706 27.0899 31.7058 27.0699 31.7396C27.0504 31.7734 27.0274 31.8047 27.0024 31.8332C26.9773 31.8616 26.9497 31.8872 26.92 31.9098C26.8903 31.9325 26.8588 31.9513 26.8261 31.9667C26.793 31.9822 26.759 31.9942 26.7242 32.002C26.6889 32.0097 26.6537 32.014 26.618 32.014C26.5823 32.014 26.5471 32.0097 26.5119 32.002C26.477 31.9942 26.4431 31.9822 26.4099 31.9667C26.3768 31.9513 26.3458 31.9325 26.3161 31.9098C26.2863 31.8872 26.2587 31.8616 26.2337 31.8332C26.2082 31.8047 26.1857 31.7734 26.1662 31.7396C26.1462 31.7058 26.1296 31.6706 26.1156 31.633C26.102 31.5959 26.0918 31.5573 26.085 31.5173C26.0778 31.4777 26.0744 31.4377 26.0744 31.3972V27.0799C26.0744 27.0394 26.0778 26.9993 26.085 26.9598C26.0918 26.9198 26.102 26.8812 26.1156 26.8441C26.1296 26.8064 26.1462 26.7708 26.1662 26.7375C26.1857 26.7037 26.2082 26.6724 26.2337 26.6439C26.2587 26.615 26.2863 26.5894 26.3161 26.5672C26.3458 26.5446 26.3768 26.5258 26.4099 26.5103C26.4431 26.4944 26.477 26.4828 26.5119 26.4751C26.5471 26.4669 26.5823 26.4631 26.618 26.4631C26.6537 26.4631 26.6889 26.4669 26.7242 26.4751C26.759 26.4828 26.793 26.4944 26.8261 26.5103C26.8588 26.5258 26.8903 26.5446 26.92 26.5672C26.9497 26.5894 26.9773 26.615 27.0024 26.6439C27.0274 26.6724 27.0504 26.7037 27.0699 26.7375C27.0899 26.7708 27.1064 26.8064 27.1204 26.8441C27.134 26.8812 27.1442 26.9198 27.151 26.9598C27.1582 26.9993 27.1616 27.0394 27.1616 27.0799ZM22.541 15.0535V17.2121C22.541 17.2526 22.5376 17.2927 22.5304 17.3322C22.5236 17.3722 22.5134 17.4108 22.4998 17.448C22.4858 17.4856 22.4692 17.5213 22.4493 17.5545C22.4297 17.5883 22.4072 17.6196 22.3817 17.6481C22.3567 17.6766 22.3291 17.7026 22.2994 17.7248C22.2696 17.7474 22.2382 17.7663 22.2055 17.7817C22.1724 17.7971 22.1384 17.8092 22.1036 17.8169C22.0683 17.8246 22.0331 17.829 21.9974 17.829C21.9617 17.829 21.9265 17.8246 21.8912 17.8169C21.8564 17.8092 21.8224 17.7971 21.7893 17.7817C21.7566 17.7663 21.7252 17.7474 21.6954 17.7248C21.6657 17.7026 21.6381 17.6766 21.6131 17.6481C21.5876 17.6196 21.5651 17.5883 21.5455 17.5545C21.5256 17.5213 21.509 17.4856 21.495 17.448C21.4814 17.4108 21.4712 17.3722 21.4644 17.3322C21.4572 17.2927 21.4538 17.2526 21.4538 17.2121V15.0535C21.4538 15.013 21.4572 14.9729 21.4644 14.9329C21.4712 14.8934 21.4814 14.8548 21.495 14.8176C21.509 14.78 21.5256 14.7443 21.5455 14.7106C21.5651 14.6773 21.5876 14.646 21.6131 14.6175C21.6381 14.5886 21.6657 14.563 21.6954 14.5408C21.7252 14.5182 21.7566 14.4993 21.7893 14.4834C21.8224 14.468 21.8564 14.4564 21.8912 14.4487C21.9265 14.4405 21.9617 14.4367 21.9974 14.4367C22.0331 14.4367 22.0683 14.4405 22.1036 14.4487C22.1384 14.4564 22.1724 14.468 22.2055 14.4834C22.2382 14.4993 22.2696 14.5182 22.2994 14.5408C22.3291 14.563 22.3567 14.5886 22.3817 14.6175C22.4072 14.646 22.4297 14.6773 22.4493 14.7106C22.4692 14.7443 22.4858 14.78 22.4998 14.8176C22.5134 14.8548 22.5236 14.8934 22.5304 14.9329C22.5376 14.9729 22.541 15.013 22.541 15.0535ZM14.9306 17.2121V20.6039C14.9306 20.6445 14.9272 20.685 14.9199 20.7245C14.9131 20.7641 14.903 20.8026 14.8894 20.8403C14.8753 20.8774 14.8588 20.9131 14.8388 20.9468C14.8193 20.9806 14.7968 21.0115 14.7713 21.0404C14.7462 21.0689 14.7186 21.0944 14.6889 21.1171C14.6592 21.1393 14.6282 21.1586 14.5951 21.174C14.5619 21.1894 14.528 21.201 14.4931 21.2092C14.4579 21.2169 14.4226 21.2208 14.387 21.2208C14.3513 21.2208 14.316 21.2169 14.2808 21.2092C14.246 21.201 14.212 21.1894 14.1789 21.174C14.1462 21.1586 14.1147 21.1393 14.085 21.1171C14.0553 21.0944 14.0277 21.0689 14.0026 21.0404C13.9776 21.0115 13.9546 20.9806 13.9351 20.9468C13.9151 20.9131 13.8986 20.8774 13.8845 20.8403C13.871 20.8026 13.8608 20.7641 13.854 20.7245C13.8468 20.685 13.8434 20.6445 13.8434 20.6039V17.2121C13.8434 17.1716 13.8468 17.1316 13.854 17.0916C13.8608 17.052 13.871 17.0134 13.8845 16.9758C13.8986 16.9387 13.9151 16.903 13.9351 16.8692C13.9546 16.836 13.9776 16.8046 14.0026 16.7762C14.0277 16.7472 14.0553 16.7217 14.085 16.6995C14.1147 16.6768 14.1462 16.658 14.1789 16.6421C14.212 16.6266 14.246 16.6151 14.2808 16.6074C14.316 16.5992 14.3513 16.5953 14.387 16.5953C14.4226 16.5953 14.4579 16.5992 14.4931 16.6074C14.528 16.6151 14.5619 16.6266 14.5951 16.6421C14.6282 16.658 14.6592 16.6768 14.6889 16.6995C14.7186 16.7217 14.7462 16.7472 14.7713 16.7762C14.7968 16.8046 14.8193 16.836 14.8388 16.8692C14.8588 16.903 14.8753 16.9387 14.8894 16.9758C14.903 17.0134 14.9131 17.052 14.9199 17.0916C14.9272 17.1316 14.9306 17.1716 14.9306 17.2121Z" fill="black"/>
</g>
<defs>
<filter id="filter0_d_80_703" x="-3.01245" y="0.350952" width="48.7703" height="54.2981" filterUnits="userSpaceOnUse" color-interpolation-filters="sRGB">
<feFlood flood-opacity="0" result="BackgroundImageFix"/>
<feColorMatrix in="SourceAlpha" type="matrix" values="0 0 0 0 0 0 0 0 0 0 0 0 0 0 0 0 0 0 127 0" result="hardAlpha"/>
<feOffset dy="4"/>
<feGaussianBlur stdDeviation="2"/>
<feComposite in2="hardAlpha" operator="out"/>
<feColorMatrix type="matrix" values="0 0 0 0 0 0 0 0 0 0 0 0 0 0 0 0 0 0 0.25 0"/>
<feBlend mode="normal" in2="BackgroundImageFix" result="effect1_dropShadow_80_703"/>
<feBlend mode="normal" in="SourceGraphic" in2="effect1_dropShadow_80_703" result="shape"/>
</filter>
</defs>
</svg>
