<svg width="42" height="48" viewBox="0 0 42 48" fill="none" xmlns="http://www.w3.org/2000/svg">
<path d="M28.7547 40.3209C28.432 40.3763 28.1105 40.4405 27.7864 40.4858C26.5502 40.6594 25.3436 40.4718 24.1609 40.0638C22.22 39.3935 20.734 38.0031 19.5636 36.1762C18.0759 33.8551 17.1879 31.2494 16.863 28.3986C16.736 27.2817 16.685 26.158 16.6213 25.0367C16.513 23.1337 16.1172 21.3228 15.4118 19.5914C15.0852 18.7908 14.7671 17.9758 14.6648 17.0903C14.5505 16.1051 14.6856 15.1791 15.2848 14.3959C15.4764 14.1461 15.7163 13.9787 15.9733 13.8389C16.0985 13.7709 16.2247 13.7853 16.2922 13.9397C16.3538 14.0805 16.2986 14.1962 16.1873 14.2777C16.1015 14.3399 16.0106 14.3935 15.9291 14.462C15.0674 15.1912 14.971 16.1981 15.1574 17.2895C15.3022 18.1388 15.6322 18.9186 15.9444 19.6989C16.6094 21.3609 16.9466 23.1057 17.0639 24.9191C17.1539 26.3037 17.1772 27.6979 17.407 29.0661C17.9251 32.1493 18.9898 34.9358 20.9421 37.2165C22.3253 38.8331 24.0237 39.7397 25.9938 39.978C28.4303 40.2722 30.5299 39.3679 32.3595 37.5903C33.9207 36.073 34.801 34.1169 34.9866 31.8098C35.3892 26.7932 33.5979 23.0213 29.8271 20.4257C28.8439 19.7491 27.8081 19.1762 26.8334 18.4817C25.4103 17.468 24.219 16.1634 23.1314 14.7233C22.6141 14.0385 22.0807 13.3682 21.3995 12.8791C21.109 12.6703 20.8071 12.488 20.4745 12.3838C19.5466 12.0935 18.4836 12.5107 17.8814 13.399C17.7081 13.6551 17.559 13.929 17.4465 14.2271C17.4265 14.2797 17.4036 14.3322 17.3769 14.3809C17.3055 14.5111 17.1981 14.5618 17.077 14.4976C16.9509 14.4311 16.9301 14.2999 16.9798 14.1596C17.0668 13.9141 17.1709 13.6783 17.2966 13.4545C17.3276 13.3995 17.3879 13.3484 17.3191 13.2621C16.9798 12.8357 16.7976 12.3096 16.6315 11.7815C16.5657 11.5731 16.4616 11.4849 16.2875 11.427C15.6611 11.2196 15.0317 11.2602 14.4027 11.386C12.6955 11.7284 11.2826 12.6259 10.2624 14.2498C9.66321 15.2037 9.35616 16.2951 9.13702 17.4221C8.89155 18.6842 8.58874 19.9222 8.04811 21.07C8.01966 21.1303 7.95596 21.206 8.00437 21.2721C8.05278 21.3372 8.12795 21.2731 8.18826 21.2601C8.75522 21.1376 9.21983 20.7826 9.67595 20.4079C10.8315 19.4583 11.7183 18.2222 12.5494 16.9278C13.3236 15.7221 14.0129 14.4615 14.4376 13.0359C14.5471 12.6674 14.6317 12.2917 14.7043 11.9122C14.74 11.726 14.7905 11.5278 15.0071 11.5891C15.2046 11.645 15.1799 11.8331 15.1477 12.0164C14.9357 13.2201 14.5319 14.3428 13.9785 15.3894C13.0297 17.1825 11.9561 18.8704 10.5597 20.2598C10.0004 20.8168 9.4084 21.3276 8.70129 21.6314C8.45497 21.737 8.20058 21.8103 7.93557 21.8103C7.57926 21.8103 7.41787 21.5562 7.52277 21.1684C7.54825 21.0739 7.58053 20.9803 7.62172 20.8935C8.18232 19.7091 8.4779 18.4253 8.73484 17.1246C8.98371 15.8639 9.37272 14.6664 10.0938 13.6431C11.1811 12.1008 12.6101 11.2201 14.3106 10.8825C14.9888 10.748 15.67 10.7137 16.3754 10.9163C16.313 10.5035 16.2166 10.1239 16.1966 9.73183C16.1877 9.5587 16.1758 9.38556 16.1758 9.21195C16.1763 9.03495 16.2153 8.86182 16.4064 8.86182C16.6039 8.86182 16.6192 9.03447 16.6239 9.21484C16.6553 10.4538 16.9696 11.6026 17.4932 12.6838C17.5794 12.8613 17.6359 12.925 17.8003 12.7398C18.67 11.7559 19.9721 11.5124 21.0937 12.1003C21.9682 12.5594 22.6366 13.3064 23.2597 14.1123C24.1596 15.2765 25.0752 16.42 26.1803 17.3474C27.1324 18.1465 28.1712 18.7788 29.2028 19.4269C30.2751 20.1012 31.3266 20.8091 32.2138 21.7881C33.961 23.7168 35.0941 26.0003 35.4028 28.7777C35.6296 30.8172 35.5081 32.8008 34.784 34.7106C34.2269 36.1806 33.3363 37.3501 32.2835 38.3884C30.5044 40.1434 28.4923 41.3761 26.1616 41.8444C22.7003 42.5393 19.7853 41.4132 17.5501 38.2934C16.5058 36.836 15.9703 35.0955 15.6437 33.2652C15.3842 31.8078 15.3825 30.3408 15.4428 28.8669C15.4989 27.4949 15.5647 26.1223 15.4679 24.7493C15.4212 24.0895 15.3269 23.438 15.1859 22.7946C15.1468 22.6157 15.0695 22.4069 15.2921 22.3056C15.4505 22.2338 15.5477 22.3457 15.6191 22.6572C15.8454 23.6468 15.9376 24.6557 15.9588 25.6753C15.9894 27.1496 15.8862 28.6195 15.8611 30.0919C15.8204 32.4931 16.2221 34.7834 17.2711 36.8852C18.5749 39.4967 20.5943 40.9859 23.1781 41.4455C24.8144 41.7364 26.416 41.4084 27.9623 40.7482C28.2141 40.6406 28.4625 40.523 28.7118 40.4087C28.7301 40.4 28.7445 40.3807 28.7611 40.3667C28.759 40.3513 28.7568 40.3358 28.7547 40.3209ZM23.3212 32.7859C24.0258 33.7437 24.8191 34.565 25.8791 34.9971C27.9975 35.8604 29.661 34.768 30.4611 33.0178C31.0362 31.7606 31.0408 30.4034 30.6764 29.0796C29.9638 26.4917 28.4715 24.5998 26.4045 23.3015C25.3415 22.6336 24.1936 22.2579 22.9454 22.3842C22.3759 22.4421 22.017 22.7353 21.8102 23.3247C21.4577 24.3278 21.2815 25.3661 21.2857 26.445C21.287 28.8028 21.9796 30.9614 23.3212 32.7859ZM29.3998 33.7938C28.3784 34.8838 27.1418 35.081 25.7526 34.3865C24.8522 33.9361 24.1783 33.1775 23.5756 32.3258C22.2621 30.4695 21.6526 28.3461 21.7435 25.9709C21.7754 25.1327 21.9491 24.3225 22.2183 23.5383C22.3614 23.1216 22.6112 22.935 23.0082 22.8916C23.9787 22.7845 24.8849 23.0488 25.7398 23.5074C27.9312 24.6823 29.4504 26.5679 30.2369 29.1838C30.3928 29.7027 30.4531 30.2453 30.445 30.7965C30.439 31.9491 30.1613 32.9812 29.3998 33.7938ZM22.8337 28.4623C22.9917 29.2113 23.2129 29.9347 23.5981 30.5795C23.689 30.7314 23.8101 30.8278 23.9642 30.7049C24.1095 30.5882 24.0708 30.4329 23.9812 30.2911C23.8449 30.076 23.7315 29.8459 23.641 29.6024C23.2762 28.6181 23.086 27.5894 23.0499 26.5245C23.0337 26.0456 23.0414 25.5667 23.134 25.0946C23.1577 24.9731 23.1667 24.8409 23.0558 24.7585C22.9764 24.6996 22.8889 24.7011 22.8103 24.7662C22.7347 24.8289 22.7135 24.9273 22.6948 25.0247C22.6163 25.4303 22.5908 25.8412 22.6005 26.2554C22.5891 27.0034 22.6808 27.7379 22.8337 28.4623ZM23.0295 23.9425C23.0316 24.0924 23.1123 24.1725 23.2393 24.1672C23.3654 24.1619 23.4431 24.0775 23.438 23.928C23.4334 23.7804 23.3527 23.7095 23.2265 23.6979C23.097 23.7143 23.0274 23.7963 23.0295 23.9425Z" fill="#070707"/>
<path d="M28.7547 40.3209C28.432 40.3763 28.1105 40.4405 27.7864 40.4858C26.5502 40.6594 25.3436 40.4718 24.1609 40.0638C22.22 39.3935 20.734 38.0031 19.5636 36.1762C18.0759 33.8551 17.1879 31.2494 16.863 28.3986C16.736 27.2817 16.685 26.158 16.6213 25.0367C16.513 23.1337 16.1172 21.3228 15.4118 19.5914C15.0852 18.7908 14.7671 17.9758 14.6648 17.0903C14.5505 16.1051 14.6856 15.1791 15.2848 14.3959C15.4764 14.1461 15.7163 13.9787 15.9733 13.8389C16.0985 13.7709 16.2247 13.7853 16.2922 13.9397C16.3538 14.0805 16.2986 14.1962 16.1873 14.2777C16.1015 14.3399 16.0106 14.3935 15.9291 14.462C15.0674 15.1912 14.971 16.1981 15.1574 17.2895C15.3022 18.1388 15.6322 18.9186 15.9444 19.6989C16.6094 21.3609 16.9466 23.1057 17.0639 24.9191C17.1539 26.3037 17.1772 27.6979 17.407 29.0661C17.9251 32.1493 18.9898 34.9358 20.9421 37.2165C22.3253 38.8331 24.0237 39.7397 25.9938 39.978C28.4303 40.2722 30.5299 39.3679 32.3595 37.5903C33.9207 36.073 34.801 34.1169 34.9866 31.8098C35.3892 26.7932 33.5979 23.0213 29.8271 20.4257C28.8439 19.7491 27.8081 19.1762 26.8334 18.4817C25.4103 17.468 24.219 16.1634 23.1314 14.7233C22.6141 14.0385 22.0807 13.3682 21.3995 12.8791C21.109 12.6703 20.8071 12.488 20.4745 12.3838C19.5466 12.0935 18.4836 12.5107 17.8814 13.399C17.7081 13.6551 17.559 13.929 17.4465 14.2271C17.4265 14.2797 17.4036 14.3322 17.3769 14.3809C17.3055 14.5111 17.1981 14.5618 17.077 14.4976C16.9509 14.4311 16.9301 14.2999 16.9798 14.1596C17.0668 13.9141 17.1709 13.6783 17.2966 13.4545C17.3276 13.3995 17.3879 13.3484 17.3191 13.2621C16.9798 12.8357 16.7976 12.3096 16.6315 11.7815C16.5657 11.5731 16.4616 11.4849 16.2875 11.427C15.6611 11.2196 15.0317 11.2602 14.4027 11.386C12.6955 11.7284 11.2826 12.6259 10.2624 14.2498C9.66321 15.2037 9.35616 16.2951 9.13702 17.4221C8.89155 18.6842 8.58874 19.9222 8.04811 21.07C8.01966 21.1303 7.95596 21.206 8.00437 21.2721C8.05278 21.3372 8.12795 21.2731 8.18826 21.2601C8.75522 21.1376 9.21983 20.7826 9.67595 20.4079C10.8315 19.4583 11.7183 18.2222 12.5494 16.9278C13.3236 15.7221 14.0129 14.4615 14.4376 13.0359C14.5471 12.6674 14.6317 12.2917 14.7043 11.9122C14.74 11.726 14.7905 11.5278 15.0071 11.5891C15.2046 11.645 15.1799 11.8331 15.1477 12.0164C14.9357 13.2201 14.5319 14.3428 13.9785 15.3894C13.0297 17.1825 11.9561 18.8704 10.5597 20.2598C10.0004 20.8168 9.4084 21.3276 8.70129 21.6314C8.45497 21.737 8.20058 21.8103 7.93557 21.8103C7.57926 21.8103 7.41787 21.5562 7.52277 21.1684C7.54825 21.0739 7.58053 20.9803 7.62172 20.8935C8.18232 19.7091 8.4779 18.4253 8.73484 17.1246C8.98371 15.8639 9.37272 14.6664 10.0938 13.6431C11.1811 12.1008 12.6101 11.2201 14.3106 10.8825C14.9888 10.748 15.67 10.7137 16.3754 10.9163C16.313 10.5035 16.2166 10.1239 16.1966 9.73183C16.1877 9.5587 16.1758 9.38556 16.1758 9.21195C16.1763 9.03495 16.2153 8.86182 16.4064 8.86182C16.6039 8.86182 16.6192 9.03447 16.6239 9.21484C16.6553 10.4538 16.9696 11.6026 17.4932 12.6838C17.5794 12.8613 17.6359 12.925 17.8003 12.7398C18.67 11.7559 19.9721 11.5124 21.0937 12.1003C21.9682 12.5594 22.6366 13.3064 23.2597 14.1123C24.1596 15.2765 25.0752 16.42 26.1803 17.3474C27.1324 18.1465 28.1712 18.7788 29.2028 19.4269C30.2751 20.1012 31.3266 20.8091 32.2138 21.7881C33.961 23.7168 35.0941 26.0003 35.4028 28.7777C35.6296 30.8172 35.5081 32.8008 34.784 34.7106C34.2269 36.1806 33.3363 37.3501 32.2835 38.3884C30.5044 40.1434 28.4923 41.3761 26.1616 41.8444C22.7003 42.5393 19.7853 41.4132 17.5501 38.2934C16.5058 36.836 15.9703 35.0955 15.6437 33.2652C15.3842 31.8078 15.3825 30.3408 15.4428 28.8669C15.4989 27.4949 15.5647 26.1223 15.4679 24.7493C15.4212 24.0895 15.3269 23.438 15.1859 22.7946C15.1468 22.6157 15.0695 22.4069 15.2921 22.3056C15.4505 22.2338 15.5477 22.3457 15.6191 22.6572C15.8454 23.6468 15.9376 24.6557 15.9588 25.6753C15.9894 27.1496 15.8862 28.6195 15.8611 30.0919C15.8204 32.4931 16.2221 34.7834 17.2711 36.8852C18.5749 39.4967 20.5943 40.9859 23.1781 41.4455C24.8144 41.7364 26.416 41.4084 27.9623 40.7482C28.2141 40.6406 28.4625 40.523 28.7118 40.4087C28.7301 40.4 28.7445 40.3807 28.7611 40.3667C28.759 40.3513 28.7568 40.3358 28.7547 40.3209ZM23.3212 32.7859C24.0258 33.7437 24.8191 34.565 25.8791 34.9971C27.9975 35.8604 29.661 34.768 30.4611 33.0178C31.0362 31.7606 31.0408 30.4034 30.6764 29.0796C29.9638 26.4917 28.4715 24.5998 26.4045 23.3015C25.3415 22.6336 24.1936 22.2579 22.9454 22.3842C22.3759 22.4421 22.017 22.7353 21.8102 23.3247C21.4577 24.3278 21.2815 25.3661 21.2857 26.445C21.287 28.8028 21.9796 30.9614 23.3212 32.7859ZM29.3998 33.7938C28.3784 34.8838 27.1418 35.081 25.7526 34.3865C24.8522 33.9361 24.1783 33.1775 23.5756 32.3258C22.2621 30.4695 21.6526 28.3461 21.7435 25.9709C21.7754 25.1327 21.9491 24.3225 22.2183 23.5383C22.3614 23.1216 22.6112 22.935 23.0082 22.8916C23.9787 22.7845 24.8849 23.0488 25.7398 23.5074C27.9312 24.6823 29.4504 26.5679 30.2369 29.1838C30.3928 29.7027 30.4531 30.2453 30.445 30.7965C30.439 31.9491 30.1613 32.9812 29.3998 33.7938ZM22.8337 28.4623C22.9917 29.2113 23.2129 29.9347 23.5981 30.5795C23.689 30.7314 23.8101 30.8278 23.9642 30.7049C24.1095 30.5882 24.0708 30.4329 23.9812 30.2911C23.8449 30.076 23.7315 29.8459 23.641 29.6024C23.2762 28.6181 23.086 27.5894 23.0499 26.5245C23.0337 26.0456 23.0414 25.5667 23.134 25.0946C23.1577 24.9731 23.1667 24.8409 23.0558 24.7585C22.9764 24.6996 22.8889 24.7011 22.8103 24.7662C22.7347 24.8289 22.7135 24.9273 22.6948 25.0247C22.6163 25.4303 22.5908 25.8412 22.6005 26.2554C22.5891 27.0034 22.6808 27.7379 22.8337 28.4623ZM23.0295 23.9425C23.0316 24.0924 23.1123 24.1725 23.2393 24.1672C23.3654 24.1619 23.4431 24.0775 23.438 23.928C23.4334 23.7804 23.3527 23.7095 23.2265 23.6979C23.097 23.7143 23.0274 23.7963 23.0295 23.9425Z" fill="#070707"/>
</svg>
