<svg width="33" height="73" viewBox="0 0 33 73" fill="none" xmlns="http://www.w3.org/2000/svg">
<path d="M16.5001 13.695C19.9193 13.695 22.6911 10.9232 22.6911 7.50399C22.6911 4.08479 19.9193 1.31299 16.5001 1.31299C13.0809 1.31299 10.3091 4.08479 10.3091 7.50399C10.3091 10.9232 13.0809 13.695 16.5001 13.695Z" stroke="#061428" stroke-width="2.5" stroke-miterlimit="10"/>
<path d="M21.5879 71.688L22.8259 51.067H31.6169C25.9989 37.444 24.8889 22.777 24.8889 22.777C24.2219 20.694 22.7479 19.561 20.3449 19.561H12.6529C10.2499 19.561 8.77586 20.694 8.10886 22.777C8.10886 22.777 6.99986 37.444 1.38086 51.067H10.1719L11.4109 71.688" stroke="#061428" stroke-width="2.5" stroke-miterlimit="10" stroke-linecap="round" stroke-linejoin="round"/>
</svg>
